<svg xmlns="http://www.w3.org/2000/svg" width="237.6707763671875" height="246.53753662109375" viewBox="-9.416343688964844 -10.695976257324219 237.6707763671875 246.53753662109375"><title>Neo4j Graph Visualization</title><desc>Created using Neo4j (http://www.neo4j.com/)</desc><g class="layer relationships"><g class="relationship" transform="translate(125.44422233745966 127.21767789407853) rotate(407.6210423832092)"><path class="outline" fill="#A5ABB6" stroke="none" d="M 25 0.5 L 27.61313095156821 0.5 L 27.61313095156821 -0.5 L 25 -0.5 Z M 73.17563095156821 0.5 L 75.78876190313642 0.5 L 75.78876190313642 3.5 L 82.78876190313642 0 L 75.78876190313642 -3.5 L 75.78876190313642 -0.5 L 73.17563095156821 -0.5 Z"/><text text-anchor="middle" pointer-events="none" font-size="8px" fill="#000000" x="50.39438095156821" y="3" font-family="sans-serif">ACTED_IN</text></g><g class="relationship" transform="translate(125.44422233745966 127.21767789407853) rotate(310.8220911885582)"><path class="outline" fill="#A5ABB6" stroke="none" d="M 25 0.5 L 30.173399241267013 0.5 L 30.173399241267013 -0.5 L 25 -0.5 Z M 75.73589924126702 0.5 L 80.90929848253403 0.5 L 80.90929848253403 3.5 L 87.90929848253403 0 L 80.90929848253403 -3.5 L 80.90929848253403 -0.5 L 75.73589924126702 -0.5 Z"/><text text-anchor="middle" pointer-events="none" font-size="8px" fill="#000000" x="52.95464924126701" y="3" font-family="sans-serif">ACTED_IN</text></g><g class="relationship" transform="translate(125.44422233745966 127.21767789407853) rotate(254.1435852874048)"><path class="outline" fill="#A5ABB6" stroke="none" d="M 25 0.5 L 30.329653730456627 0.5 L 30.329653730456627 -0.5 L 25 -0.5 Z M 75.89215373045663 0.5 L 81.22180746091325 0.5 L 81.22180746091325 3.5 L 88.22180746091325 0 L 81.22180746091325 -3.5 L 81.22180746091325 -0.5 L 75.89215373045663 -0.5 Z"/><text text-anchor="middle" pointer-events="none" font-size="8px" fill="#000000" x="53.11090373045663" y="3" transform="rotate(180 53.11090373045663 0)" font-family="sans-serif">ACTED_IN</text></g><g class="relationship" transform="translate(125.44422233745966 127.21767789407853) rotate(200.78194289845538)"><path class="outline" fill="#A5ABB6" stroke="none" d="M 25 0.5 L 30.33246035418827 0.5 L 30.33246035418827 -0.5 L 25 -0.5 Z M 75.89496035418827 0.5 L 81.22742070837654 0.5 L 81.22742070837654 3.5 L 88.22742070837654 0 L 81.22742070837654 -3.5 L 81.22742070837654 -0.5 L 75.89496035418827 -0.5 Z"/><text text-anchor="middle" pointer-events="none" font-size="8px" fill="#000000" x="53.11371035418827" y="3" transform="rotate(180 53.11371035418827 0)" font-family="sans-serif">ACTED_IN</text></g><g class="relationship" transform="translate(125.44422233745966 127.21767789407853) rotate(504.1544243967685)"><path class="outline" fill="#A5ABB6" stroke="none" d="M 25 0.5 L 30.185356874059465 0.5 L 30.185356874059465 -0.5 L 25 -0.5 Z M 75.74785687405947 0.5 L 80.93321374811893 0.5 L 80.93321374811893 3.5 L 87.93321374811893 0 L 80.93321374811893 -3.5 L 80.93321374811893 -0.5 L 75.74785687405947 -0.5 Z"/><text text-anchor="middle" pointer-events="none" font-size="8px" fill="#000000" x="52.966606874059465" y="3" transform="rotate(180 52.966606874059465 0)" font-family="sans-serif">ACTED_IN</text></g></g><g class="layer nodes"><g class="node" transform="translate(125.44422233745966,127.21767789407853)"><circle class="outline" cx="0" cy="0" r="25" fill="#F79767" stroke="#f36924" stroke-width="2px"/><text text-anchor="middle" pointer-events="none" font-family="sans-serif" dy="1.5625" font-size="25" fill="#FFFFFF"/><text text-anchor="middle" pointer-events="none" font-family="sans-serif" dy="1.5625" font-size="25" fill="#FFFFFF"/><text text-anchor="middle" pointer-events="none" x="0" y="0" font-size="10px" fill="#FFFFFF" font-family="sans-serif"> Hugo</text><text text-anchor="middle" pointer-events="none" x="0" y="10" font-size="10px" fill="#FFFFFF" font-family="sans-serif"> Weaving</text></g><g class="node" transform="translate(198.0972041695711,206.84155260206995)"><circle class="outline" cx="0" cy="0" r="25" fill="#57C7E3" stroke="#23b3d7" stroke-width="2px"/><text text-anchor="middle" pointer-events="none" font-family="sans-serif" dy="1.5625" font-size="25" fill="#2A2C34"/><text text-anchor="middle" pointer-events="none" font-family="sans-serif" dy="1.5625" font-size="25" fill="#2A2C34"/><text text-anchor="middle" pointer-events="none" x="0" y="0" font-size="10px" fill="#2A2C34" font-family="sans-serif"> Cloud</text><text text-anchor="middle" pointer-events="none" x="0" y="10" font-size="10px" fill="#2A2C34" font-family="sans-serif"> Atlas</text></g><g class="node" transform="translate(199.25443370295102,41.77434941256716)"><circle class="outline" cx="0" cy="0" r="25" fill="#57C7E3" stroke="#23b3d7" stroke-width="2px"/><text text-anchor="middle" pointer-events="none" font-family="sans-serif" dy="1.5625" font-size="25" fill="#2A2C34"/><text text-anchor="middle" pointer-events="none" font-family="sans-serif" dy="1.5625" font-size="25" fill="#2A2C34"/><text text-anchor="middle" pointer-events="none" x="0" y="0" font-size="10px" fill="#2A2C34" font-family="sans-serif"> V for</text><text text-anchor="middle" pointer-events="none" x="0" y="10" font-size="10px" fill="#2A2C34" font-family="sans-serif"> Vendetta</text></g><g class="node" transform="translate(94.5089068214914,18.3040243026045)"><circle class="outline" cx="0" cy="0" r="25" fill="#57C7E3" stroke="#23b3d7" stroke-width="2px"/><text text-anchor="middle" pointer-events="none" font-family="sans-serif" dy="1.5625" font-size="25" fill="#2A2C34"/><text text-anchor="middle" pointer-events="none" font-family="sans-serif" dy="1.5625" font-size="25" fill="#2A2C34"/><text text-anchor="middle" pointer-events="none" font-family="sans-serif" dy="1.5625" font-size="25" fill="#2A2C34"/><text text-anchor="middle" pointer-events="none" x="0" y="-5" font-size="10px" fill="#2A2C34" font-family="sans-serif"> The</text><text text-anchor="middle" pointer-events="none" x="0" y="5" font-size="10px" fill="#2A2C34" font-family="sans-serif"> Matrix</text><text text-anchor="middle" pointer-events="none" x="0" y="15" font-size="10px" fill="#2A2C34" font-family="sans-serif"> Revol…</text></g><g class="node" transform="translate(19.58365570524169,87.04319304887564)"><circle class="outline" cx="0" cy="0" r="25" fill="#57C7E3" stroke="#23b3d7" stroke-width="2px"/><text text-anchor="middle" pointer-events="none" font-family="sans-serif" dy="1.5625" font-size="25" fill="#2A2C34"/><text text-anchor="middle" pointer-events="none" font-family="sans-serif" dy="1.5625" font-size="25" fill="#2A2C34"/><text text-anchor="middle" pointer-events="none" font-family="sans-serif" dy="1.5625" font-size="25" fill="#2A2C34"/><text text-anchor="middle" pointer-events="none" x="0" y="-5" font-size="10px" fill="#2A2C34" font-family="sans-serif"> The</text><text text-anchor="middle" pointer-events="none" x="0" y="5" font-size="10px" fill="#2A2C34" font-family="sans-serif"> Matrix</text><text text-anchor="middle" pointer-events="none" x="0" y="15" font-size="10px" fill="#2A2C34" font-family="sans-serif"> Reloa…</text></g><g class="node" transform="translate(33.90075564413212,193.3516666838525)"><circle class="outline" cx="0" cy="0" r="25" fill="#57C7E3" stroke="#23b3d7" stroke-width="2px"/><text text-anchor="middle" pointer-events="none" font-family="sans-serif" dy="1.5625" font-size="25" fill="#2A2C34"/><text text-anchor="middle" pointer-events="none" font-family="sans-serif" dy="1.5625" font-size="25" fill="#2A2C34"/><text text-anchor="middle" pointer-events="none" x="0" y="0" font-size="10px" fill="#2A2C34" font-family="sans-serif"> The</text><text text-anchor="middle" pointer-events="none" x="0" y="10" font-size="10px" fill="#2A2C34" font-family="sans-serif"> Matrix</text></g></g></svg>