<svg xmlns="http://www.w3.org/2000/svg" width="285.90838623046875" height="287.2511291503906" viewBox="-41.155975341796875 -46.575469970703125 285.90838623046875 287.2511291503906"><title>Neo4j Graph Visualization</title><desc>Created using Neo4j (http://www.neo4j.com/)</desc><g class="layer relationships"><g class="relationship" transform="translate(113.42364754832305 211.67565600709264) rotate(266.2366040523108)"><path class="outline" fill="#A5ABB6" stroke="none" d="M 25 0.5 L 32.68327639913102 0.5 L 32.68327639913102 -0.5 L 25 -0.5 Z M 78.24577639913102 0.5 L 85.92905279826203 0.5 L 85.92905279826203 3.5 L 92.92905279826203 0 L 85.92905279826203 -3.5 L 85.92905279826203 -0.5 L 78.24577639913102 -0.5 Z"/><text text-anchor="middle" pointer-events="none" font-size="8px" fill="#000000" x="55.46452639913102" y="3" transform="rotate(180 55.46452639913102 0)" font-family="sans-serif">ACTED_IN</text></g><g class="relationship" transform="translate(203.66916959271444 158.79211851435758) rotate(213.47385509420405)"><path class="outline" fill="#A5ABB6" stroke="none" d="M 25 0.5 L 32.453642785594 0.5 L 32.453642785594 -0.5 L 25 -0.5 Z M 78.016142785594 0.5 L 85.469785571188 0.5 L 85.469785571188 3.5 L 92.469785571188 0 L 85.469785571188 -3.5 L 85.469785571188 -0.5 L 78.016142785594 -0.5 Z"/><text text-anchor="middle" pointer-events="none" font-size="8px" fill="#000000" x="55.234892785594" y="3" transform="rotate(180 55.234892785594 0)" font-family="sans-serif">ACTED_IN</text></g><g class="relationship" transform="translate(215.752415793746 54.43823676661632) rotate(520.2298137968533)"><path class="outline" fill="#A5ABB6" stroke="none" d="M 25 0.5 L 32.20044748618469 0.5 L 32.20044748618469 -0.5 L 25 -0.5 Z M 77.76294748618469 0.5 L 84.96339497236939 0.5 L 84.96339497236939 3.5 L 91.96339497236939 0 L 84.96339497236939 -3.5 L 84.96339497236939 -0.5 L 77.76294748618469 -0.5 Z"/><text text-anchor="middle" pointer-events="none" font-size="8px" fill="#000000" x="54.98169748618469" y="3" transform="rotate(180 54.98169748618469 0)" font-family="sans-serif">ACTED_IN</text></g><g class="relationship" transform="translate(140.65434553590075 -17.575469712678697) rotate(467.4024425372644)"><path class="outline" fill="#A5ABB6" stroke="none" d="M 24.018736134675446,6.953439040707552 L 24.277555179777966,5.987513214418485 A 125.49505583130559 125.49505583130559 0 0 0 32.38506239033202,7.87410428598433 L 32.19084754144144,8.85506330269726 A 126.49505583130559 126.49505583130559 0 0 1 24.018736134675446,6.953439040707552 Z M 77.68044193415824,9.521366511408672 L 77.51504119101034,8.535140069780738 A 125.49505583130559 125.49505583130559 0 0 0 85.67432565129407,6.886814817693278 L 84.98307308127154,3.9675392424114144 L 92.6011774219555,5.7604380835210325 L 86.59599574465743,10.77918225140243 L 85.9047431746349,7.859906676120566 A 126.49505583130559 126.49505583130559 0 0 1 77.68044193415824,9.521366511408672"/><text text-anchor="middle" pointer-events="none" font-size="8px" fill="#000000" x="54.91276663495356" y="13.750139876564461" transform="rotate(180 54.91276663495356 10.750139876564461)" font-family="sans-serif">ACTED_IN</text></g><g class="relationship" transform="translate(140.65434553590075 -17.575469712678697) rotate(467.4024425372644)"><path class="outline" fill="#A5ABB6" stroke="none" d="M 24.018736134675446,-6.953439040707552 L 24.277555179777966,-5.987513214418485 A 125.49505583130559 125.49505583130559 0 0 1 37.184528783052,-8.727807501713528 L 37.028558200924984,-9.715569202485 A 126.49505583130559 126.49505583130559 0 0 0 24.018736134675446,-6.953439040707552 Z M 72.81960374846534,-10.239814116290646 L 72.69263010552106,-9.24790802497077 A 125.49505583130559 125.49505583130559 0 0 1 85.67432565129407,-6.886814817693278 L 84.98307308127154,-3.9675392424114144 L 92.6011774219555,-5.7604380835210325 L 86.59599574465743,-10.77918225140243 L 85.9047431746349,-7.859906676120566 A 126.49505583130559 126.49505583130559 0 0 0 72.81960374846534,-10.239814116290646"/><text text-anchor="middle" pointer-events="none" font-size="8px" fill="#000000" x="54.91276663495353" y="-7.750139876564461" transform="rotate(180 54.91276663495353 -10.750139876564461)" font-family="sans-serif">WROTE</text></g><g class="relationship" transform="translate(36.87327021137591 -1.1124594340063947) rotate(414.1160742520249)"><path class="outline" fill="#A5ABB6" stroke="none" d="M 25 0.5 L 32.41576710326463 0.5 L 32.41576710326463 -0.5 L 25 -0.5 Z M 77.97826710326463 0.5 L 85.39403420652926 0.5 L 85.39403420652926 3.5 L 92.39403420652926 0 L 85.39403420652926 -3.5 L 85.39403420652926 -0.5 L 77.97826710326463 -0.5 Z"/><text text-anchor="middle" pointer-events="none" font-size="8px" fill="#000000" x="55.19701710326463" y="3" font-family="sans-serif">ACTED_IN</text></g><g class="relationship" transform="translate(-12.155974483519632 91.30940710368192) rotate(361.3084328610855)"><path class="outline" fill="#A5ABB6" stroke="none" d="M 24.018736134675446,6.953439040707552 L 24.277555179777966,5.987513214418485 A 127.36642956133842 127.36642956133842 0 0 0 32.850499129731205,7.969956872946113 L 32.6589893746785,8.951447582896861 A 128.3664295613384 128.3664295613384 0 0 1 24.018736134675446,6.953439040707552 Z M 78.15324331973174,9.61278541069062 L 77.99034379425434,8.626142747615887 A 127.36642956133842 127.36642956133842 0 0 0 86.61728963056505,6.893729296491576 L 85.92539121883819,3.974606724921509 L 93.54389203284968,5.7658200977238945 L 87.53982084620087,10.785892725251664 L 86.847922434474,7.866770153681597 A 128.3664295613384 128.3664295613384 0 0 1 78.15324331973174,9.61278541069062"/><text text-anchor="middle" pointer-events="none" font-size="8px" fill="#000000" x="55.38384905858812" y="13.81391105085605" font-family="sans-serif">ACTED_IN</text></g><g class="relationship" transform="translate(-12.155974483519632 91.30940710368192) rotate(361.3084328610855)"><path class="outline" fill="#A5ABB6" stroke="none" d="M 24.018736134675446,-6.953439040707552 L 24.277555179777966,-5.987513214418485 A 127.36642956133842 127.36642956133842 0 0 1 32.20160845658279,-7.841594454929691 L 32.00500402567725,-8.822077345014108 A 128.3664295613384 128.3664295613384 0 0 0 24.018736134675446,-6.953439040707552 Z M 78.8107127777913,-9.502479441328433 L 78.642691434559,-8.516696083679108 A 127.36642956133842 127.36642956133842 0 0 1 86.61728963056505,-6.893729296491576 L 85.92539121883819,-3.974606724921509 L 93.54389203284968,-5.7658200977238945 L 87.53982084620087,-10.785892725251664 L 86.847922434474,-7.866770153681597 A 128.3664295613384 128.3664295613384 0 0 0 78.8107127777913,-9.502479441328433"/><text text-anchor="middle" pointer-events="none" font-size="8px" fill="#000000" x="55.38384905858808" y="-7.813911050856049" font-family="sans-serif">DIRECTED</text></g><g class="relationship" transform="translate(24.84406637578748 178.4015244760388) rotate(313.7652716791804)"><path class="outline" fill="#A5ABB6" stroke="none" d="M 25 0.5 L 32.15339512000576 0.5 L 32.15339512000576 -0.5 L 25 -0.5 Z M 77.71589512000577 0.5 L 84.86929024001152 0.5 L 84.86929024001152 3.5 L 91.86929024001152 0 L 84.86929024001152 -3.5 L 84.86929024001152 -0.5 L 77.71589512000577 -0.5 Z"/><text text-anchor="middle" pointer-events="none" font-size="8px" fill="#000000" x="54.93464512000576" y="3" font-family="sans-serif">ACTED_IN</text></g></g><g class="layer nodes"><g class="node" transform="translate(113.42364754832305,211.67565600709264)"><circle class="outline" cx="0" cy="0" r="25" fill="#F79767" stroke="#f36924" stroke-width="2px"/><text text-anchor="middle" pointer-events="none" font-family="sans-serif" dy="1.5625" font-size="25" fill="#FFFFFF"/><text text-anchor="middle" pointer-events="none" font-family="sans-serif" dy="1.5625" font-size="25" fill="#FFFFFF"/><text text-anchor="middle" pointer-events="none" x="0" y="0" font-size="10px" fill="#FFFFFF" font-family="sans-serif"> Tommy</text><text text-anchor="middle" pointer-events="none" x="0" y="10" font-size="10px" fill="#FFFFFF" font-family="sans-serif"> Lee Jon…</text></g><g class="node" transform="translate(203.66916959271444,158.79211851435758)"><circle class="outline" cx="0" cy="0" r="25" fill="#F79767" stroke="#f36924" stroke-width="2px"/><text text-anchor="middle" pointer-events="none" font-family="sans-serif" dy="1.5625" font-size="25" fill="#FFFFFF"/><text text-anchor="middle" pointer-events="none" font-family="sans-serif" dy="1.5625" font-size="25" fill="#FFFFFF"/><text text-anchor="middle" pointer-events="none" x="0" y="0" font-size="10px" fill="#FFFFFF" font-family="sans-serif"> Chris</text><text text-anchor="middle" pointer-events="none" x="0" y="10" font-size="10px" fill="#FFFFFF" font-family="sans-serif"> Evans</text></g><g class="node" transform="translate(215.752415793746,54.43823676661632)"><circle class="outline" cx="0" cy="0" r="25" fill="#F79767" stroke="#f36924" stroke-width="2px"/><text text-anchor="middle" pointer-events="none" font-family="sans-serif" dy="1.5625" font-size="25" fill="#FFFFFF"/><text text-anchor="middle" pointer-events="none" font-family="sans-serif" dy="1.5625" font-size="25" fill="#FFFFFF"/><text text-anchor="middle" pointer-events="none" x="0" y="0" font-size="10px" fill="#FFFFFF" font-family="sans-serif"> Hugo</text><text text-anchor="middle" pointer-events="none" x="0" y="10" font-size="10px" fill="#FFFFFF" font-family="sans-serif"> Weaving</text></g><g class="node" transform="translate(140.65434553590075,-17.575469712678697)"><circle class="outline" cx="0" cy="0" r="25" fill="#F79767" stroke="#f36924" stroke-width="2px"/><text text-anchor="middle" pointer-events="none" font-family="sans-serif" dy="1.5625" font-size="25" fill="#FFFFFF"/><text text-anchor="middle" pointer-events="none" font-family="sans-serif" dy="1.5625" font-size="25" fill="#FFFFFF"/><text text-anchor="middle" pointer-events="none" x="0" y="0" font-size="10px" fill="#FFFFFF" font-family="sans-serif"> Richard</text><text text-anchor="middle" pointer-events="none" x="0" y="10" font-size="10px" fill="#FFFFFF" font-family="sans-serif"> Armitra…</text></g><g class="node" transform="translate(105.68320550070601,94.00090488858481)"><circle class="outline" cx="0" cy="0" r="25" fill="#57C7E3" stroke="#23b3d7" stroke-width="2px"/><text text-anchor="middle" pointer-events="none" font-family="sans-serif" dy="1.5625" font-size="25" fill="#2A2C34"/><text text-anchor="middle" pointer-events="none" font-family="sans-serif" dy="1.5625" font-size="25" fill="#2A2C34"/><text text-anchor="middle" pointer-events="none" font-family="sans-serif" dy="1.5625" font-size="25" fill="#2A2C34"/><text text-anchor="middle" pointer-events="none" x="0" y="-5" font-size="10px" fill="#2A2C34" font-family="sans-serif"> Captain</text><text text-anchor="middle" pointer-events="none" x="0" y="5" font-size="10px" fill="#2A2C34" font-family="sans-serif"> America:</text><text text-anchor="middle" pointer-events="none" x="0" y="15" font-size="10px" fill="#2A2C34" font-family="sans-serif"> Pierw…</text></g><g class="node" transform="translate(36.87327021137591,-1.1124594340063947)"><circle class="outline" cx="0" cy="0" r="25" fill="#F79767" stroke="#f36924" stroke-width="2px"/><text text-anchor="middle" pointer-events="none" font-family="sans-serif" dy="1.5625" font-size="25" fill="#FFFFFF"/><text text-anchor="middle" pointer-events="none" x="0" y="5" font-size="10px" fill="#FFFFFF" font-family="sans-serif"> Sebastian</text></g><g class="node" transform="translate(-12.155974483519632,91.30940710368192)"><circle class="outline" cx="0" cy="0" r="25" fill="#F79767" stroke="#f36924" stroke-width="2px"/><text text-anchor="middle" pointer-events="none" font-family="sans-serif" dy="1.5625" font-size="25" fill="#FFFFFF"/><text text-anchor="middle" pointer-events="none" font-family="sans-serif" dy="1.5625" font-size="25" fill="#FFFFFF"/><text text-anchor="middle" pointer-events="none" x="0" y="0" font-size="10px" fill="#FFFFFF" font-family="sans-serif"> Dominic</text><text text-anchor="middle" pointer-events="none" x="0" y="10" font-size="10px" fill="#FFFFFF" font-family="sans-serif"> Cooper</text></g><g class="node" transform="translate(24.84406637578748,178.4015244760388)"><circle class="outline" cx="0" cy="0" r="25" fill="#F79767" stroke="#f36924" stroke-width="2px"/><text text-anchor="middle" pointer-events="none" font-family="sans-serif" dy="1.5625" font-size="25" fill="#FFFFFF"/><text text-anchor="middle" pointer-events="none" font-family="sans-serif" dy="1.5625" font-size="25" fill="#FFFFFF"/><text text-anchor="middle" pointer-events="none" x="0" y="0" font-size="10px" fill="#FFFFFF" font-family="sans-serif"> Hayley</text><text text-anchor="middle" pointer-events="none" x="0" y="10" font-size="10px" fill="#FFFFFF" font-family="sans-serif"> Atwell</text></g></g></svg>