<svg xmlns="http://www.w3.org/2000/svg" width="212.22451782226562" height="212.2245635986328" viewBox="-6.115934371948242 -6.112409591674805 212.22451782226562 212.2245635986328"><title>Neo4j Graph Visualization</title><desc>Created using Neo4j (http://www.neo4j.com/)</desc><g class="layer relationships"><g class="relationship" transform="translate(22.884065142849366 103.23833435581487) rotate(402.5926658316613)"><path class="outline" fill="#A5ABB6" stroke="none" d="M 25 0.5 L 33.854611477820846 0.5 L 33.854611477820846 -0.5 L 25 -0.5 Z M 68.29992397782084 0.5 L 77.15453545564169 0.5 L 77.15453545564169 3.5 L 84.15453545564169 0 L 77.15453545564169 -3.5 L 77.15453545564169 -0.5 L 68.29992397782084 -0.5 Z"/><text text-anchor="middle" pointer-events="none" font-size="8px" fill="#000000" x="51.077267727820846" y="3" font-family="sans-serif">ORIGIN</text></g><g class="relationship" transform="translate(22.884065142849366 103.23833435581487) rotate(312.59811412213895)"><path class="outline" fill="#A5ABB6" stroke="none" d="M 25 0.5 L 26.74131456814031 0.5 L 26.74131456814031 -0.5 L 25 -0.5 Z M 75.41318956814031 0.5 L 77.15450413628062 0.5 L 77.15450413628062 3.5 L 84.15450413628062 0 L 77.15450413628062 -3.5 L 77.15450413628062 -0.5 L 75.41318956814031 -0.5 Z"/><text text-anchor="middle" pointer-events="none" font-size="8px" fill="#000000" x="51.07725206814031" y="3" font-family="sans-serif">DESTINA…</text></g><g class="relationship" transform="translate(177.108581488821 96.76195904694164) rotate(222.5981070251288)"><path class="outline" fill="#A5ABB6" stroke="none" d="M 25 0.5 L 33.84939739166619 0.5 L 33.84939739166619 -0.5 L 25 -0.5 Z M 68.29470989166619 0.5 L 77.14410728333237 0.5 L 77.14410728333237 3.5 L 84.14410728333237 0 L 77.14410728333237 -3.5 L 77.14410728333237 -0.5 L 68.29470989166619 -0.5 Z"/><text text-anchor="middle" pointer-events="none" font-size="8px" fill="#000000" x="51.07205364166619" y="3" transform="rotate(180 51.07205364166619 0)" font-family="sans-serif">ORIGIN</text></g><g class="relationship" transform="translate(177.108581488821 96.76195904694164) rotate(492.59264005825776)"><path class="outline" fill="#A5ABB6" stroke="none" d="M 25 0.5 L 26.7361317913063 0.5 L 26.7361317913063 -0.5 L 25 -0.5 Z M 75.40800679130629 0.5 L 77.1441385826126 0.5 L 77.1441385826126 3.5 L 84.1441385826126 0 L 77.1441385826126 -3.5 L 77.1441385826126 -0.5 L 75.40800679130629 -0.5 Z"/><text text-anchor="middle" pointer-events="none" font-size="8px" fill="#000000" x="51.0720692913063" y="3" transform="rotate(180 51.0720692913063 0)" font-family="sans-serif">DESTINA…</text></g></g><g class="layer nodes"><g class="node" transform="translate(103.24185763975609,177.11213076266688)"><circle class="outline" cx="0" cy="0" r="25" fill="#ECB5C9" stroke="#da7298" stroke-width="2px"/><text text-anchor="middle" pointer-events="none" font-family="sans-serif" dy="1.5625" font-size="25" fill="#2A2C34"/><text text-anchor="middle" pointer-events="none" x="0" y="5" font-size="10px" fill="#2A2C34" font-family="sans-serif"> ORD</text></g><g class="node" transform="translate(177.108581488821,96.76195904694164)"><circle class="outline" cx="0" cy="0" r="25" fill="#4C8EDA" stroke="#2870c2" stroke-width="2px"/><text text-anchor="middle" pointer-events="none" font-family="sans-serif" dy="1.5625" font-size="25" fill="#FFFFFF"/><text text-anchor="middle" pointer-events="none" x="0" y="5" font-size="10px" fill="#FFFFFF" font-family="sans-serif"> 11/30/20…</text></g><g class="node" transform="translate(96.76548128843521,22.887589981166602)"><circle class="outline" cx="0" cy="0" r="25" fill="#ECB5C9" stroke="#da7298" stroke-width="2px"/><text text-anchor="middle" pointer-events="none" font-family="sans-serif" dy="1.5625" font-size="25" fill="#2A2C34"/><text text-anchor="middle" pointer-events="none" x="0" y="5" font-size="10px" fill="#2A2C34" font-family="sans-serif"> MSN</text></g><g class="node" transform="translate(22.884065142849366,103.23833435581487)"><circle class="outline" cx="0" cy="0" r="25" fill="#4C8EDA" stroke="#2870c2" stroke-width="2px"/><text text-anchor="middle" pointer-events="none" font-family="sans-serif" dy="1.5625" font-size="25" fill="#FFFFFF"/><text text-anchor="middle" pointer-events="none" x="0" y="5" font-size="10px" fill="#FFFFFF" font-family="sans-serif"> 11/30/20…</text></g></g></svg>