<svg xmlns="http://www.w3.org/2000/svg" width="1181.2562255859375" height="915.302001953125" viewBox="-411.7119445800781 -392.8993835449219 1181.2562255859375 915.302001953125"><title>Neo4j Graph Visualization</title><desc>Created using Neo4j (http://www.neo4j.com/)</desc><g class="layer relationships"><g class="relationship" transform="translate(-82.38627378931255 193.98613792833467) rotate(512.306382005351)"><path class="outline" fill="#A5ABB6" stroke="none" d="M 25 0.5 L 63.8545238526264 0.5 L 63.8545238526264 -0.5 L 25 -0.5 Z M 123.0420238526264 0.5 L 161.8965477052528 0.5 L 161.8965477052528 3.5 L 168.8965477052528 0 L 161.8965477052528 -3.5 L 161.8965477052528 -0.5 L 123.0420238526264 -0.5 Z"/><text text-anchor="middle" pointer-events="none" font-size="8px" fill="#000000" x="93.4482738526264" y="3" transform="rotate(180 93.4482738526264 0)" font-family="sans-serif">DESTINATION</text></g><g class="relationship" transform="translate(-82.38627378931255 193.98613792833467) rotate(340.76817521620524)"><path class="outline" fill="#A5ABB6" stroke="none" d="M 25 0.5 L 99.73245490796018 0.5 L 99.73245490796018 -0.5 L 25 -0.5 Z M 134.17776740796018 0.5 L 208.91022231592035 0.5 L 208.91022231592035 3.5 L 215.91022231592035 0 L 208.91022231592035 -3.5 L 208.91022231592035 -0.5 L 134.17776740796018 -0.5 Z"/><text text-anchor="middle" pointer-events="none" font-size="8px" fill="#000000" x="116.95511115796018" y="3" font-family="sans-serif">ORIGIN</text></g><g class="relationship" transform="translate(335.55174494574914 125.88242494122017) rotate(183.3801714545143)"><path class="outline" fill="#A5ABB6" stroke="none" d="M 25 0.5 L 62.30829121231827 0.5 L 62.30829121231827 -0.5 L 25 -0.5 Z M 121.49579121231827 0.5 L 158.80408242463653 0.5 L 158.80408242463653 3.5 L 165.80408242463653 0 L 158.80408242463653 -3.5 L 158.80408242463653 -0.5 L 121.49579121231827 -0.5 Z"/><text text-anchor="middle" pointer-events="none" font-size="8px" fill="#000000" x="91.90204121231827" y="3" transform="rotate(180 91.90204121231827 0)" font-family="sans-serif">DESTINATION</text></g><g class="relationship" transform="translate(335.55174494574914 125.88242494122017) rotate(352.5469845925202)"><path class="outline" fill="#A5ABB6" stroke="none" d="M 25 0.5 L 79.82207988139461 0.5 L 79.82207988139461 -0.5 L 25 -0.5 Z M 114.26739238139461 0.5 L 169.08947226278923 0.5 L 169.08947226278923 3.5 L 176.08947226278923 0 L 169.08947226278923 -3.5 L 169.08947226278923 -0.5 L 114.26739238139461 -0.5 Z"/><text text-anchor="middle" pointer-events="none" font-size="8px" fill="#000000" x="97.04473613139461" y="3" font-family="sans-serif">ORIGIN</text></g><g class="relationship" transform="translate(665.4935341248645 78.8632969103837) rotate(530.8896161069566)"><path class="outline" fill="#A5ABB6" stroke="none" d="M 25 0.5 L 45.386911760923425 0.5 L 45.386911760923425 -0.5 L 25 -0.5 Z M 79.83222426092343 0.5 L 100.21913602184685 0.5 L 100.21913602184685 3.5 L 107.21913602184685 0 L 100.21913602184685 -3.5 L 100.21913602184685 -0.5 L 79.83222426092343 -0.5 Z"/><text text-anchor="middle" pointer-events="none" font-size="8px" fill="#000000" x="62.609568010923425" y="3" transform="rotate(180 62.609568010923425 0)" font-family="sans-serif">ORIGIN</text></g><g class="relationship" transform="translate(665.4935341248645 78.8632969103837) rotate(422.14256248900983)"><path class="outline" fill="#A5ABB6" stroke="none" d="M 25 0.5 L 47.21338954983402 0.5 L 47.21338954983402 -0.5 L 25 -0.5 Z M 106.40088954983402 0.5 L 128.61427909966804 0.5 L 128.61427909966804 3.5 L 135.61427909966804 0 L 128.61427909966804 -3.5 L 128.61427909966804 -0.5 L 106.40088954983402 -0.5 Z"/><text text-anchor="middle" pointer-events="none" font-size="8px" fill="#000000" x="76.80713954983402" y="3" font-family="sans-serif">DESTINATION</text></g><g class="relationship" transform="translate(-29.518908785187243 389.70593685346074) rotate(205.18776210728885)"><path class="outline" fill="#A5ABB6" stroke="none" d="M 25 0.5 L 103.35056202515008 0.5 L 103.35056202515008 -0.5 L 25 -0.5 Z M 137.79587452515008 0.5 L 216.14643655030017 0.5 L 216.14643655030017 3.5 L 223.14643655030017 0 L 216.14643655030017 -3.5 L 216.14643655030017 -0.5 L 137.79587452515008 -0.5 Z"/><text text-anchor="middle" pointer-events="none" font-size="8px" fill="#000000" x="120.57321827515008" y="3" transform="rotate(180 120.57321827515008 0)" font-family="sans-serif">ORIGIN</text></g><g class="relationship" transform="translate(-29.518908785187243 389.70593685346074) rotate(350.6025621708702)"><path class="outline" fill="#A5ABB6" stroke="none" d="M 25 0.5 L 100.02160411370338 0.5 L 100.02160411370338 -0.5 L 25 -0.5 Z M 159.20910411370338 0.5 L 234.23070822740675 0.5 L 234.23070822740675 3.5 L 241.23070822740675 0 L 234.23070822740675 -3.5 L 234.23070822740675 -0.5 L 159.20910411370338 -0.5 Z"/><text text-anchor="middle" pointer-events="none" font-size="8px" fill="#000000" x="129.61535411370338" y="3" font-family="sans-serif">DESTINATION</text></g><g class="relationship" transform="translate(211.4026911206752 242.64249091305734) rotate(438.14993609449164)"><path class="outline" fill="#A5ABB6" stroke="none" d="M 25 0.5 L 25.08837030903723 0.5 L 25.08837030903723 -0.5 L 25 -0.5 Z M 73.76024530903723 0.5 L 73.84861561807446 0.5 L 73.84861561807446 3.5 L 80.84861561807446 0 L 73.84861561807446 -3.5 L 73.84861561807446 -0.5 L 73.76024530903723 -0.5 Z"/><text text-anchor="middle" pointer-events="none" font-size="8px" fill="#000000" x="49.42430780903723" y="3" font-family="sans-serif">DESTINA…</text></g><g class="relationship" transform="translate(211.4026911206752 242.64249091305734) rotate(242.610945119836)"><path class="outline" fill="#A5ABB6" stroke="none" d="M 25 0.5 L 51.36292466758664 0.5 L 51.36292466758664 -0.5 L 25 -0.5 Z M 85.80823716758664 0.5 L 112.17116183517328 0.5 L 112.17116183517328 3.5 L 119.17116183517328 0 L 112.17116183517328 -3.5 L 112.17116183517328 -0.5 L 85.80823716758664 -0.5 Z"/><text text-anchor="middle" pointer-events="none" font-size="8px" fill="#000000" x="68.58558091758664" y="3" transform="rotate(180 68.58558091758664 0)" font-family="sans-serif">ORIGIN</text></g><g class="relationship" transform="translate(270.5688208370617 233.4772113934678) rotate(468.36355578949986)"><path class="outline" fill="#A5ABB6" stroke="none" d="M 25 0.5 L 26.31035132370925 0.5 L 26.31035132370925 -0.5 L 25 -0.5 Z M 85.49785132370926 0.5 L 86.8082026474185 0.5 L 86.8082026474185 3.5 L 93.8082026474185 0 L 86.8082026474185 -3.5 L 86.8082026474185 -0.5 L 85.49785132370926 -0.5 Z"/><text text-anchor="middle" pointer-events="none" font-size="8px" fill="#000000" x="55.90410132370925" y="3" transform="rotate(180 55.90410132370925 0)" font-family="sans-serif">DESTINATION</text></g><g class="relationship" transform="translate(270.5688208370617 233.4772113934678) rotate(223.44227575273288)"><path class="outline" fill="#A5ABB6" stroke="none" d="M 25 0.5 L 65.69438773276545 0.5 L 65.69438773276545 -0.5 L 25 -0.5 Z M 100.13970023276545 0.5 L 140.8340879655309 0.5 L 140.8340879655309 3.5 L 147.8340879655309 0 L 140.8340879655309 -3.5 L 140.8340879655309 -0.5 L 100.13970023276545 -0.5 Z"/><text text-anchor="middle" pointer-events="none" font-size="8px" fill="#000000" x="82.91704398276545" y="3" transform="rotate(180 82.91704398276545 0)" font-family="sans-serif">ORIGIN</text></g><g class="relationship" transform="translate(258.32146135384204 57.49269067955146) rotate(454.9844260389258)"><path class="outline" fill="#A5ABB6" stroke="none" d="M 25 0.5 L 124.19668028539843 0.5 L 124.19668028539843 -0.5 L 25 -0.5 Z M 158.64199278539843 0.5 L 257.83867307079686 0.5 L 257.83867307079686 3.5 L 264.83867307079686 0 L 257.83867307079686 -3.5 L 257.83867307079686 -0.5 L 158.64199278539843 -0.5 Z"/><text text-anchor="middle" pointer-events="none" font-size="8px" fill="#000000" x="141.41933653539843" y="3" transform="rotate(180 141.41933653539843 0)" font-family="sans-serif">ORIGIN</text></g><g class="relationship" transform="translate(258.32146135384204 57.49269067955146) rotate(259.63844821794623)"><path class="outline" fill="#A5ABB6" stroke="none" d="M 25 0.5 L 94.51830678956844 0.5 L 94.51830678956844 -0.5 L 25 -0.5 Z M 153.70580678956844 0.5 L 223.22411357913688 0.5 L 223.22411357913688 3.5 L 230.22411357913688 0 L 223.22411357913688 -3.5 L 223.22411357913688 -0.5 L 153.70580678956844 -0.5 Z"/><text text-anchor="middle" pointer-events="none" font-size="8px" fill="#000000" x="124.11205678956844" y="3" transform="rotate(180 124.11205678956844 0)" font-family="sans-serif">DESTINATION</text></g><g class="relationship" transform="translate(417.9851608715957 -88.32320659194114) rotate(207.11140104588355)"><path class="outline" fill="#A5ABB6" stroke="none" d="M 25 0.5 L 82.378085150346 0.5 L 82.378085150346 -0.5 L 25 -0.5 Z M 141.565585150346 0.5 L 198.943670300692 0.5 L 198.943670300692 3.5 L 205.943670300692 0 L 198.943670300692 -3.5 L 198.943670300692 -0.5 L 141.565585150346 -0.5 Z"/><text text-anchor="middle" pointer-events="none" font-size="8px" fill="#000000" x="111.971835150346" y="3" transform="rotate(180 111.971835150346 0)" font-family="sans-serif">DESTINATION</text></g><g class="relationship" transform="translate(417.9851608715957 -88.32320659194114) rotate(418.1303633118124)"><path class="outline" fill="#A5ABB6" stroke="none" d="M 25 0.5 L 90.03467708148993 0.5 L 90.03467708148993 -0.5 L 25 -0.5 Z M 124.47998958148993 0.5 L 189.51466666297986 0.5 L 189.51466666297986 3.5 L 196.51466666297986 0 L 189.51466666297986 -3.5 L 189.51466666297986 -0.5 L 124.47998958148993 -0.5 Z"/><text text-anchor="middle" pointer-events="none" font-size="8px" fill="#000000" x="107.25733333148993" y="3" font-family="sans-serif">ORIGIN</text></g><g class="relationship" transform="translate(651.5395564055725 137.13337980149748) rotate(197.7552734832061)"><path class="outline" fill="#A5ABB6" stroke="none" d="M 25 0.5 L 40.49173935179501 0.5 L 40.49173935179501 -0.5 L 25 -0.5 Z M 74.93705185179502 0.5 L 90.42879120359002 0.5 L 90.42879120359002 3.5 L 97.42879120359002 0 L 90.42879120359002 -3.5 L 90.42879120359002 -0.5 L 74.93705185179502 -0.5 Z"/><text text-anchor="middle" pointer-events="none" font-size="8px" fill="#000000" x="57.71439560179501" y="3" transform="rotate(180 57.71439560179501 0)" font-family="sans-serif">ORIGIN</text></g><g class="relationship" transform="translate(651.5395564055725 137.13337980149748) rotate(403.25129975178686)"><path class="outline" fill="#A5ABB6" stroke="none" d="M 25 0.5 L 28.00603634215399 0.5 L 28.00603634215399 -0.5 L 25 -0.5 Z M 87.19353634215399 0.5 L 90.19957268430798 0.5 L 90.19957268430798 3.5 L 97.19957268430798 0 L 90.19957268430798 -3.5 L 90.19957268430798 -0.5 L 87.19353634215399 -0.5 Z"/><text text-anchor="middle" pointer-events="none" font-size="8px" fill="#000000" x="57.59978634215399" y="3" font-family="sans-serif">DESTINATION</text></g><g class="relationship" transform="translate(634.5308285796377 194.4999451035855) rotate(223.5591245972446)"><path class="outline" fill="#A5ABB6" stroke="none" d="M 25 0.5 L 47.99094740607883 0.5 L 47.99094740607883 -0.5 L 25 -0.5 Z M 82.43625990607883 0.5 L 105.42720731215766 0.5 L 105.42720731215766 3.5 L 112.42720731215766 0 L 105.42720731215766 -3.5 L 105.42720731215766 -0.5 L 82.43625990607883 -0.5 Z"/><text text-anchor="middle" pointer-events="none" font-size="8px" fill="#000000" x="65.21360365607883" y="3" transform="rotate(180 65.21360365607883 0)" font-family="sans-serif">ORIGIN</text></g><g class="relationship" transform="translate(634.5308285796377 194.4999451035855) rotate(373.9655985406521)"><path class="outline" fill="#A5ABB6" stroke="none" d="M 25 0.5 L 26.785348545593855 0.5 L 26.785348545593855 -0.5 L 25 -0.5 Z M 75.45722354559385 0.5 L 77.24257209118771 0.5 L 77.24257209118771 3.5 L 84.24257209118771 0 L 77.24257209118771 -3.5 L 77.24257209118771 -0.5 L 75.45722354559385 -0.5 Z"/><text text-anchor="middle" pointer-events="none" font-size="8px" fill="#000000" x="51.121286045593855" y="3" font-family="sans-serif">DESTINA…</text></g><g class="relationship" transform="translate(610.8207416924203 249.41135030981923) rotate(243.10747006277126)"><path class="outline" fill="#A5ABB6" stroke="none" d="M 25 0.5 L 63.154552865651794 0.5 L 63.154552865651794 -0.5 L 25 -0.5 Z M 97.5998653656518 0.5 L 135.7544182313036 0.5 L 135.7544182313036 3.5 L 142.7544182313036 0 L 135.7544182313036 -3.5 L 135.7544182313036 -0.5 L 97.5998653656518 -0.5 Z"/><text text-anchor="middle" pointer-events="none" font-size="8px" fill="#000000" x="80.3772091156518" y="3" transform="rotate(180 80.3772091156518 0)" font-family="sans-serif">ORIGIN</text></g><g class="relationship" transform="translate(610.8207416924203 249.41135030981923) rotate(347.589335613619)"><path class="outline" fill="#A5ABB6" stroke="none" d="M 25 0.5 L 33.319954268861636 0.5 L 33.319954268861636 -0.5 L 25 -0.5 Z M 92.50745426886164 0.5 L 100.82740853772327 0.5 L 100.82740853772327 3.5 L 107.82740853772327 0 L 100.82740853772327 -3.5 L 100.82740853772327 -0.5 L 92.50745426886164 -0.5 Z"/><text text-anchor="middle" pointer-events="none" font-size="8px" fill="#000000" x="62.913704268861636" y="3" font-family="sans-serif">DESTINATION</text></g><g class="relationship" transform="translate(375.0101319593256 81.15453270878663) rotate(531.7159397097342)"><path class="outline" fill="#A5ABB6" stroke="none" d="M 25 0.5 L 83.08371915706881 0.5 L 83.08371915706881 -0.5 L 25 -0.5 Z M 142.2712191570688 0.5 L 200.35493831413763 0.5 L 200.35493831413763 3.5 L 207.35493831413763 0 L 200.35493831413763 -3.5 L 200.35493831413763 -0.5 L 142.2712191570688 -0.5 Z"/><text text-anchor="middle" pointer-events="none" font-size="8px" fill="#000000" x="112.67746915706881" y="3" transform="rotate(180 112.67746915706881 0)" font-family="sans-serif">DESTINATION</text></g><g class="relationship" transform="translate(375.0101319593256 81.15453270878663) rotate(366.64919119055827)"><path class="outline" fill="#A5ABB6" stroke="none" d="M 25 0.5 L 59.784957340554996 0.5 L 59.784957340554996 -0.5 L 25 -0.5 Z M 94.230269840555 0.5 L 129.01522718111 0.5 L 129.01522718111 3.5 L 136.01522718111 0 L 129.01522718111 -3.5 L 129.01522718111 -0.5 L 94.230269840555 -0.5 Z"/><text text-anchor="middle" pointer-events="none" font-size="8px" fill="#000000" x="77.007613590555" y="3" font-family="sans-serif">ORIGIN</text></g><g class="relationship" transform="translate(376.1408523044479 169.52110288900604) rotate(193.3629444094065)"><path class="outline" fill="#A5ABB6" stroke="none" d="M 25 0.5 L 85.65184420109081 0.5 L 85.65184420109081 -0.5 L 25 -0.5 Z M 144.8393442010908 0.5 L 205.49118840218162 0.5 L 205.49118840218162 3.5 L 212.49118840218162 0 L 205.49118840218162 -3.5 L 205.49118840218162 -0.5 L 144.8393442010908 -0.5 Z"/><text text-anchor="middle" pointer-events="none" font-size="8px" fill="#000000" x="115.24559420109081" y="3" transform="rotate(180 115.24559420109081 0)" font-family="sans-serif">DESTINATION</text></g><g class="relationship" transform="translate(376.1408523044479 169.52110288900604) rotate(336.29587110483635)"><path class="outline" fill="#A5ABB6" stroke="none" d="M 25 0.5 L 65.99405498822549 0.5 L 65.99405498822549 -0.5 L 25 -0.5 Z M 100.43936748822549 0.5 L 141.43342247645097 0.5 L 141.43342247645097 3.5 L 148.43342247645097 0 L 141.43342247645097 -3.5 L 141.43342247645097 -0.5 L 100.43936748822549 -0.5 Z"/><text text-anchor="middle" pointer-events="none" font-size="8px" fill="#000000" x="83.21671123822549" y="3" font-family="sans-serif">ORIGIN</text></g><g class="relationship" transform="translate(-171.2965923389213 419.33911255985765) rotate(238.53117960516704)"><path class="outline" fill="#A5ABB6" stroke="none" d="M 25 0.5 L 58.55801247941693 0.5 L 58.55801247941693 -0.5 L 25 -0.5 Z M 93.00332497941693 0.5 L 126.56133745883386 0.5 L 126.56133745883386 3.5 L 133.56133745883386 0 L 126.56133745883386 -3.5 L 126.56133745883386 -0.5 L 93.00332497941693 -0.5 Z"/><text text-anchor="middle" pointer-events="none" font-size="8px" fill="#000000" x="75.78066872941693" y="3" transform="rotate(180 75.78066872941693 0)" font-family="sans-serif">ORIGIN</text></g><g class="relationship" transform="translate(-171.2965923389213 419.33911255985765) rotate(323.775938692454)"><path class="outline" fill="#A5ABB6" stroke="none" d="M 25 0.5 L 35.37290645967832 0.5 L 35.37290645967832 -0.5 L 25 -0.5 Z M 94.56040645967832 0.5 L 104.93331291935664 0.5 L 104.93331291935664 3.5 L 111.93331291935664 0 L 104.93331291935664 -3.5 L 104.93331291935664 -0.5 L 94.56040645967832 -0.5 Z"/><text text-anchor="middle" pointer-events="none" font-size="8px" fill="#000000" x="64.96665645967832" y="3" font-family="sans-serif">DESTINATION</text></g><g class="relationship" transform="translate(90.44563118145979 59.4105003476385) rotate(478.46622719629863)"><path class="outline" fill="#A5ABB6" stroke="none" d="M 25 0.5 L 137.96758914390136 0.5 L 137.96758914390136 -0.5 L 25 -0.5 Z M 172.41290164390136 0.5 L 285.3804907878027 0.5 L 285.3804907878027 3.5 L 292.3804907878027 0 L 285.3804907878027 -3.5 L 285.3804907878027 -0.5 L 172.41290164390136 -0.5 Z"/><text text-anchor="middle" pointer-events="none" font-size="8px" fill="#000000" x="155.19024539390136" y="3" transform="rotate(180 155.19024539390136 0)" font-family="sans-serif">ORIGIN</text></g><g class="relationship" transform="translate(90.44563118145979 59.4105003476385) rotate(295.74053176899736)"><path class="outline" fill="#A5ABB6" stroke="none" d="M 25 0.5 L 107.33045452853017 0.5 L 107.33045452853017 -0.5 L 25 -0.5 Z M 166.51795452853017 0.5 L 248.84840905706034 0.5 L 248.84840905706034 3.5 L 255.84840905706034 0 L 248.84840905706034 -3.5 L 248.84840905706034 -0.5 L 166.51795452853017 -0.5 Z"/><text text-anchor="middle" pointer-events="none" font-size="8px" fill="#000000" x="136.92420452853017" y="3" font-family="sans-serif">DESTINATION</text></g><g class="relationship" transform="translate(-166.47620610046928 327.07381071517227) rotate(206.13335073708402)"><path class="outline" fill="#A5ABB6" stroke="none" d="M 25 0.5 L 28.061966960217845 0.5 L 28.061966960217845 -0.5 L 25 -0.5 Z M 62.507279460217845 0.5 L 65.56924642043569 0.5 L 65.56924642043569 3.5 L 72.56924642043569 0 L 65.56924642043569 -3.5 L 65.56924642043569 -0.5 L 62.507279460217845 -0.5 Z"/><text text-anchor="middle" pointer-events="none" font-size="8px" fill="#000000" x="45.284623210217845" y="3" transform="rotate(180 45.284623210217845 0)" font-family="sans-serif">ORIGIN</text></g><g class="relationship" transform="translate(-166.47620610046928 327.07381071517227) rotate(366.12953252624243)"><path class="outline" fill="#A5ABB6" stroke="none" d="M 25 0.5 L 25.290479219940202 0.5 L 25.290479219940202 -0.5 L 25 -0.5 Z M 73.96235421994021 0.5 L 74.2528334398804 0.5 L 74.2528334398804 3.5 L 81.2528334398804 0 L 74.2528334398804 -3.5 L 74.2528334398804 -0.5 L 73.96235421994021 -0.5 Z"/><text text-anchor="middle" pointer-events="none" font-size="8px" fill="#000000" x="49.6264167199402" y="3" font-family="sans-serif">DESTINA…</text></g><g class="relationship" transform="translate(-192.1434460660887 -26.461335366382414) rotate(461.27723637362794)"><path class="outline" fill="#A5ABB6" stroke="none" d="M 25 0.5 L 125.24316002479509 0.5 L 125.24316002479509 -0.5 L 25 -0.5 Z M 184.4306600247951 0.5 L 284.6738200495902 0.5 L 284.6738200495902 3.5 L 291.6738200495902 0 L 284.6738200495902 -3.5 L 284.6738200495902 -0.5 L 184.4306600247951 -0.5 Z"/><text text-anchor="middle" pointer-events="none" font-size="8px" fill="#000000" x="154.8369100247951" y="3" transform="rotate(180 154.8369100247951 0)" font-family="sans-serif">DESTINATION</text></g><g class="relationship" transform="translate(-192.1434460660887 -26.461335366382414) rotate(304.4066875108497)"><path class="outline" fill="#A5ABB6" stroke="none" d="M 25 0.5 L 127.61202805076755 0.5 L 127.61202805076755 -0.5 L 25 -0.5 Z M 162.05734055076755 0.5 L 264.6693686015351 0.5 L 264.6693686015351 3.5 L 271.6693686015351 0 L 264.6693686015351 -3.5 L 264.6693686015351 -0.5 L 162.05734055076755 -0.5 Z"/><text text-anchor="middle" pointer-events="none" font-size="8px" fill="#000000" x="144.83468430076755" y="3" font-family="sans-serif">ORIGIN</text></g><g class="relationship" transform="translate(134.49002305590432 -283.82410263930666) rotate(535.4702268723786)"><path class="outline" fill="#A5ABB6" stroke="none" d="M 25 0.5 L 59.02468770844496 0.5 L 59.02468770844496 -0.5 L 25 -0.5 Z M 93.47000020844496 0.5 L 127.49468791688992 0.5 L 127.49468791688992 3.5 L 134.49468791688992 0 L 127.49468791688992 -3.5 L 127.49468791688992 -0.5 L 93.47000020844496 -0.5 Z"/><text text-anchor="middle" pointer-events="none" font-size="8px" fill="#000000" x="76.24734395844496" y="3" transform="rotate(180 76.24734395844496 0)" font-family="sans-serif">ORIGIN</text></g><g class="relationship" transform="translate(134.49002305590432 -283.82410263930666) rotate(409.19227749450283)"><path class="outline" fill="#A5ABB6" stroke="none" d="M 25 0.5 L 26.527034664644283 0.5 L 26.527034664644283 -0.5 L 25 -0.5 Z M 85.71453466464428 0.5 L 87.24156932928857 0.5 L 87.24156932928857 3.5 L 94.24156932928857 0 L 87.24156932928857 -3.5 L 87.24156932928857 -0.5 L 85.71453466464428 -0.5 Z"/><text text-anchor="middle" pointer-events="none" font-size="8px" fill="#000000" x="56.12078466464428" y="3" font-family="sans-serif">DESTINATION</text></g><g class="relationship" transform="translate(-206.75919721126076 371.1986921368283) rotate(241.4897290364242)"><path class="outline" fill="#A5ABB6" stroke="none" d="M 25 0.5 L 28.837649179892352 0.5 L 28.837649179892352 -0.5 L 25 -0.5 Z M 63.28296167989235 0.5 L 67.1206108597847 0.5 L 67.1206108597847 3.5 L 74.1206108597847 0 L 67.1206108597847 -3.5 L 67.1206108597847 -0.5 L 63.28296167989235 -0.5 Z"/><text text-anchor="middle" pointer-events="none" font-size="8px" fill="#000000" x="46.06030542989235" y="3" transform="rotate(180 46.06030542989235 0)" font-family="sans-serif">ORIGIN</text></g><g class="relationship" transform="translate(-206.75919721126076 371.1986921368283) rotate(347.3399174684288)"><path class="outline" fill="#A5ABB6" stroke="none" d="M 25 0.5 L 41.68858832589437 0.5 L 41.68858832589437 -0.5 L 25 -0.5 Z M 100.87608832589437 0.5 L 117.56467665178874 0.5 L 117.56467665178874 3.5 L 124.56467665178874 0 L 117.56467665178874 -3.5 L 117.56467665178874 -0.5 L 100.87608832589437 -0.5 Z"/><text text-anchor="middle" pointer-events="none" font-size="8px" fill="#000000" x="71.28233832589437" y="3" font-family="sans-serif">DESTINATION</text></g><g class="relationship" transform="translate(708.8358150077304 119.97582924022093) rotate(186.61859234121255)"><path class="outline" fill="#A5ABB6" stroke="none" d="M 25 0.5 L 66.80744003912847 0.5 L 66.80744003912847 -0.5 L 25 -0.5 Z M 101.25275253912847 0.5 L 143.06019257825693 0.5 L 143.06019257825693 3.5 L 150.06019257825693 0 L 143.06019257825693 -3.5 L 143.06019257825693 -0.5 L 101.25275253912847 -0.5 Z"/><text text-anchor="middle" pointer-events="none" font-size="8px" fill="#000000" x="84.03009628912847" y="3" transform="rotate(180 84.03009628912847 0)" font-family="sans-serif">ORIGIN</text></g><g class="relationship" transform="translate(708.8358150077304 119.97582924022093) rotate(432.5524986114077)"><path class="outline" fill="#A5ABB6" stroke="none" d="M 25 0.5 L 25.04114632677154 0.5 L 25.04114632677154 -0.5 L 25 -0.5 Z M 73.71302132677154 0.5 L 73.75416765354308 0.5 L 73.75416765354308 3.5 L 80.75416765354308 0 L 73.75416765354308 -3.5 L 73.75416765354308 -0.5 L 73.71302132677154 -0.5 Z"/><text text-anchor="middle" pointer-events="none" font-size="8px" fill="#000000" x="49.37708382677154" y="3" font-family="sans-serif">DESTINA…</text></g><g class="relationship" transform="translate(-231.60340832499887 425.4591216325742) rotate(260.96903756289646)"><path class="outline" fill="#A5ABB6" stroke="none" d="M 25 0.5 L 50.844939369931026 0.5 L 50.844939369931026 -0.5 L 25 -0.5 Z M 85.29025186993103 0.5 L 111.13519123986205 0.5 L 111.13519123986205 3.5 L 118.13519123986205 0 L 111.13519123986205 -3.5 L 111.13519123986205 -0.5 L 85.29025186993103 -0.5 Z"/><text text-anchor="middle" pointer-events="none" font-size="8px" fill="#000000" x="68.06759561993103" y="3" transform="rotate(180 68.06759561993103 0)" font-family="sans-serif">ORIGIN</text></g><g class="relationship" transform="translate(-231.60340832499887 425.4591216325742) rotate(332.99280479128333)"><path class="outline" fill="#A5ABB6" stroke="none" d="M 25 0.5 L 62.74366358791687 0.5 L 62.74366358791687 -0.5 L 25 -0.5 Z M 121.93116358791687 0.5 L 159.67482717583374 0.5 L 159.67482717583374 3.5 L 166.67482717583374 0 L 159.67482717583374 -3.5 L 159.67482717583374 -0.5 L 121.93116358791687 -0.5 Z"/><text text-anchor="middle" pointer-events="none" font-size="8px" fill="#000000" x="92.33741358791687" y="3" font-family="sans-serif">DESTINATION</text></g><g class="relationship" transform="translate(92.03352928520455 272.1240128312956) rotate(516.5543020984796)"><path class="outline" fill="#A5ABB6" stroke="none" d="M 25 0.5 L 50.21673838645617 0.5 L 50.21673838645617 -0.5 L 25 -0.5 Z M 109.40423838645617 0.5 L 134.62097677291234 0.5 L 134.62097677291234 3.5 L 141.62097677291234 0 L 134.62097677291234 -3.5 L 134.62097677291234 -0.5 L 109.40423838645617 -0.5 Z"/><text text-anchor="middle" pointer-events="none" font-size="8px" fill="#000000" x="79.81048838645617" y="3" transform="rotate(180 79.81048838645617 0)" font-family="sans-serif">DESTINATION</text></g><g class="relationship" transform="translate(92.03352928520455 272.1240128312956) rotate(288.61447810507)"><path class="outline" fill="#A5ABB6" stroke="none" d="M 25 0.5 L 62.36988353548763 0.5 L 62.36988353548763 -0.5 L 25 -0.5 Z M 96.81519603548763 0.5 L 134.18507957097526 0.5 L 134.18507957097526 3.5 L 141.18507957097526 0 L 134.18507957097526 -3.5 L 134.18507957097526 -0.5 L 96.81519603548763 -0.5 Z"/><text text-anchor="middle" pointer-events="none" font-size="8px" fill="#000000" x="79.59253978548763" y="3" font-family="sans-serif">ORIGIN</text></g><g class="relationship" transform="translate(44.64949595583928 235.6876046971443) rotate(495.75636922976975)"><path class="outline" fill="#A5ABB6" stroke="none" d="M 25 0.5 L 40.5266639570778 0.5 L 40.5266639570778 -0.5 L 25 -0.5 Z M 99.7141639570778 0.5 L 115.2408279141556 0.5 L 115.2408279141556 3.5 L 122.2408279141556 0 L 115.2408279141556 -3.5 L 115.2408279141556 -0.5 L 99.7141639570778 -0.5 Z"/><text text-anchor="middle" pointer-events="none" font-size="8px" fill="#000000" x="70.1204139570778" y="3" transform="rotate(180 70.1204139570778 0)" font-family="sans-serif">DESTINATION</text></g><g class="relationship" transform="translate(44.64949595583928 235.6876046971443) rotate(309.6798709386203)"><path class="outline" fill="#A5ABB6" stroke="none" d="M 25 0.5 L 57.92300325974486 0.5 L 57.92300325974486 -0.5 L 25 -0.5 Z M 92.36831575974486 0.5 L 125.29131901948972 0.5 L 125.29131901948972 3.5 L 132.29131901948972 0 L 125.29131901948972 -3.5 L 125.29131901948972 -0.5 L 92.36831575974486 -0.5 Z"/><text text-anchor="middle" pointer-events="none" font-size="8px" fill="#000000" x="75.14565950974486" y="3" font-family="sans-serif">ORIGIN</text></g><g class="relationship" transform="translate(21.742022534386223 -81.89792929930515) rotate(256.27290119145994)"><path class="outline" fill="#A5ABB6" stroke="none" d="M 25 0.5 L 76.725630528116 0.5 L 76.725630528116 -0.5 L 25 -0.5 Z M 111.170943028116 0.5 L 162.896573556232 0.5 L 162.896573556232 3.5 L 169.896573556232 0 L 162.896573556232 -3.5 L 162.896573556232 -0.5 L 111.170943028116 -0.5 Z"/><text text-anchor="middle" pointer-events="none" font-size="8px" fill="#000000" x="93.948286778116" y="3" transform="rotate(180 93.948286778116 0)" font-family="sans-serif">ORIGIN</text></g><g class="relationship" transform="translate(21.742022534386223 -81.89792929930515) rotate(417.8886385538501)"><path class="outline" fill="#A5ABB6" stroke="none" d="M 25 0.5 L 82.91955403092564 0.5 L 82.91955403092564 -0.5 L 25 -0.5 Z M 142.10705403092564 0.5 L 200.02660806185128 0.5 L 200.02660806185128 3.5 L 207.02660806185128 0 L 200.02660806185128 -3.5 L 200.02660806185128 -0.5 L 142.10705403092564 -0.5 Z"/><text text-anchor="middle" pointer-events="none" font-size="8px" fill="#000000" x="112.51330403092564" y="3" font-family="sans-serif">DESTINATION</text></g><g class="relationship" transform="translate(180.61128183042828 -321.8670891311908) rotate(526.1321409907389)"><path class="outline" fill="#A5ABB6" stroke="none" d="M 25 0.5 L 72.54436282089158 0.5 L 72.54436282089158 -0.5 L 25 -0.5 Z M 131.7318628208916 0.5 L 179.27622564178316 0.5 L 179.27622564178316 3.5 L 186.27622564178316 0 L 179.27622564178316 -3.5 L 179.27622564178316 -0.5 L 131.7318628208916 -0.5 Z"/><text text-anchor="middle" pointer-events="none" font-size="8px" fill="#000000" x="102.13811282089158" y="3" transform="rotate(180 102.13811282089158 0)" font-family="sans-serif">DESTINATION</text></g><g class="relationship" transform="translate(180.61128183042828 -321.8670891311908) rotate(436.0767235448844)"><path class="outline" fill="#A5ABB6" stroke="none" d="M 25 0.5 L 45.3680486302966 0.5 L 45.3680486302966 -0.5 L 25 -0.5 Z M 79.8133611302966 0.5 L 100.1814097605932 0.5 L 100.1814097605932 3.5 L 107.1814097605932 0 L 100.1814097605932 -3.5 L 100.1814097605932 -0.5 L 79.8133611302966 -0.5 Z"/><text text-anchor="middle" pointer-events="none" font-size="8px" fill="#000000" x="62.5907048802966" y="3" font-family="sans-serif">ORIGIN</text></g><g class="relationship" transform="translate(68.97649440956549 -363.89938348687946) rotate(495.2496909109816)"><path class="outline" fill="#A5ABB6" stroke="none" d="M 25 0.5 L 32.722492759247075 0.5 L 32.722492759247075 -0.5 L 25 -0.5 Z M 91.90999275924707 0.5 L 99.63248551849415 0.5 L 99.63248551849415 3.5 L 106.63248551849415 0 L 99.63248551849415 -3.5 L 99.63248551849415 -0.5 L 91.90999275924707 -0.5 Z"/><text text-anchor="middle" pointer-events="none" font-size="8px" fill="#000000" x="62.316242759247075" y="3" transform="rotate(180 62.316242759247075 0)" font-family="sans-serif">DESTINATION</text></g><g class="relationship" transform="translate(68.97649440956549 -363.89938348687946) rotate(409.89815660119984)"><path class="outline" fill="#A5ABB6" stroke="none" d="M 25 0.5 L 90.61863417455027 0.5 L 90.61863417455027 -0.5 L 25 -0.5 Z M 125.06394667455027 0.5 L 190.68258084910053 0.5 L 190.68258084910053 3.5 L 197.68258084910053 0 L 190.68258084910053 -3.5 L 190.68258084910053 -0.5 L 125.06394667455027 -0.5 Z"/><text text-anchor="middle" pointer-events="none" font-size="8px" fill="#000000" x="107.84129042455027" y="3" font-family="sans-serif">ORIGIN</text></g><g class="relationship" transform="translate(124.8913026239768 -342.8953220702464) rotate(514.3724861910844)"><path class="outline" fill="#A5ABB6" stroke="none" d="M 25 0.5 L 62.12652479687284 0.5 L 62.12652479687284 -0.5 L 25 -0.5 Z M 96.57183729687284 0.5 L 133.6983620937457 0.5 L 133.6983620937457 3.5 L 140.6983620937457 0 L 133.6983620937457 -3.5 L 133.6983620937457 -0.5 L 96.57183729687284 -0.5 Z"/><text text-anchor="middle" pointer-events="none" font-size="8px" fill="#000000" x="79.34918104687284" y="3" transform="rotate(180 79.34918104687284 0)" font-family="sans-serif">ORIGIN</text></g><g class="relationship" transform="translate(124.8913026239768 -342.8953220702464) rotate(419.62377088077426)"><path class="outline" fill="#A5ABB6" stroke="none" d="M 25 0.5 L 53.449614572936085 0.5 L 53.449614572936085 -0.5 L 25 -0.5 Z M 112.63711457293608 0.5 L 141.08672914587217 0.5 L 141.08672914587217 3.5 L 148.08672914587217 0 L 141.08672914587217 -3.5 L 141.08672914587217 -0.5 L 112.63711457293608 -0.5 Z"/><text text-anchor="middle" pointer-events="none" font-size="8px" fill="#000000" x="83.04336457293608" y="3" font-family="sans-serif">DESTINATION</text></g><g class="relationship" transform="translate(88.07553696989451 -245.85177621978795) rotate(192.70215208732316)"><path class="outline" fill="#A5ABB6" stroke="none" d="M 25 0.5 L 26.609466440975957 0.5 L 26.609466440975957 -0.5 L 25 -0.5 Z M 81.79696644097595 0.5 L 83.40643288195191 0.5 L 83.40643288195191 3.5 L 90.40643288195191 0 L 83.40643288195191 -3.5 L 83.40643288195191 -0.5 L 81.79696644097595 -0.5 Z"/><text text-anchor="middle" pointer-events="none" font-size="8px" fill="#000000" x="54.20321644097596" y="3" transform="rotate(180 54.20321644097596 0)" font-family="sans-serif">DESTINATI…</text></g><g class="relationship" transform="translate(88.07553696989451 -245.85177621978795) rotate(382.80551145228395)"><path class="outline" fill="#A5ABB6" stroke="none" d="M 25 0.5 L 46.72042262998163 0.5 L 46.72042262998163 -0.5 L 25 -0.5 Z M 81.16573512998163 0.5 L 102.88615775996325 0.5 L 102.88615775996325 3.5 L 109.88615775996325 0 L 102.88615775996325 -3.5 L 102.88615775996325 -0.5 L 81.16573512998163 -0.5 Z"/><text text-anchor="middle" pointer-events="none" font-size="8px" fill="#000000" x="63.94307887998163" y="3" font-family="sans-serif">ORIGIN</text></g><g class="relationship" transform="translate(78.62954352268706 -304.9733047306814) rotate(521.8821398441823)"><path class="outline" fill="#A5ABB6" stroke="none" d="M 25 0.5 L 26.42225416053258 0.5 L 26.42225416053258 -0.5 L 25 -0.5 Z M 75.09412916053259 0.5 L 76.51638332106516 0.5 L 76.51638332106516 3.5 L 83.51638332106516 0 L 76.51638332106516 -3.5 L 76.51638332106516 -0.5 L 75.09412916053259 -0.5 Z"/><text text-anchor="middle" pointer-events="none" font-size="8px" fill="#000000" x="50.75819166053258" y="3" transform="rotate(180 50.75819166053258 0)" font-family="sans-serif">DESTINA…</text></g><g class="relationship" transform="translate(78.62954352268706 -304.9733047306814) rotate(399.7839189977501)"><path class="outline" fill="#A5ABB6" stroke="none" d="M 25 0.5 L 66.32611323516906 0.5 L 66.32611323516906 -0.5 L 25 -0.5 Z M 100.77142573516906 0.5 L 142.09753897033812 0.5 L 142.09753897033812 3.5 L 149.09753897033812 0 L 142.09753897033812 -3.5 L 142.09753897033812 -0.5 L 100.77142573516906 -0.5 Z"/><text text-anchor="middle" pointer-events="none" font-size="8px" fill="#000000" x="83.54876948516906" y="3" font-family="sans-serif">ORIGIN</text></g><g class="relationship" transform="translate(-279.2562970850004 149.0992229211219) rotate(439.4324674101039)"><path class="outline" fill="#A5ABB6" stroke="none" d="M 25 0.5 L 47.94145625284848 0.5 L 47.94145625284848 -0.5 L 25 -0.5 Z M 82.38676875284848 0.5 L 105.32822500569696 0.5 L 105.32822500569696 3.5 L 112.32822500569696 0 L 105.32822500569696 -3.5 L 105.32822500569696 -0.5 L 82.38676875284848 -0.5 Z"/><text text-anchor="middle" pointer-events="none" font-size="8px" fill="#000000" x="65.16411250284848" y="3" font-family="sans-serif">ORIGIN</text></g><g class="relationship" transform="translate(-279.2562970850004 149.0992229211219) rotate(317.81449846189037)"><path class="outline" fill="#A5ABB6" stroke="none" d="M 25 0.5 L 40.29474595654574 0.5 L 40.29474595654574 -0.5 L 25 -0.5 Z M 99.48224595654574 0.5 L 114.77699191309148 0.5 L 114.77699191309148 3.5 L 121.77699191309148 0 L 114.77699191309148 -3.5 L 114.77699191309148 -0.5 L 99.48224595654574 -0.5 Z"/><text text-anchor="middle" pointer-events="none" font-size="8px" fill="#000000" x="69.88849595654574" y="3" font-family="sans-serif">DESTINATION</text></g><g class="relationship" transform="translate(1.874412389548655 72.19607392579557) rotate(187.162936606519)"><path class="outline" fill="#A5ABB6" stroke="none" d="M 25 0.5 L 66.14161703633704 0.5 L 66.14161703633704 -0.5 L 25 -0.5 Z M 100.58692953633704 0.5 L 141.72854657267408 0.5 L 141.72854657267408 3.5 L 148.72854657267408 0 L 141.72854657267408 -3.5 L 141.72854657267408 -0.5 L 100.58692953633704 -0.5 Z"/><text text-anchor="middle" pointer-events="none" font-size="8px" fill="#000000" x="83.36427328633704" y="3" transform="rotate(180 83.36427328633704 0)" font-family="sans-serif">ORIGIN</text></g><g class="relationship" transform="translate(1.874412389548655 72.19607392579557) rotate(376.5062743442086)"><path class="outline" fill="#A5ABB6" stroke="none" d="M 25 0.5 L 41.58652329741349 0.5 L 41.58652329741349 -0.5 L 25 -0.5 Z M 100.77402329741349 0.5 L 117.36054659482699 0.5 L 117.36054659482699 3.5 L 124.36054659482699 0 L 117.36054659482699 -3.5 L 117.36054659482699 -0.5 L 100.77402329741349 -0.5 Z"/><text text-anchor="middle" pointer-events="none" font-size="8px" fill="#000000" x="71.18027329741349" y="3" font-family="sans-serif">DESTINATION</text></g><g class="relationship" transform="translate(-15.643163551901887 129.4397514314144) rotate(207.0010323888248)"><path class="outline" fill="#A5ABB6" stroke="none" d="M 25 0.5 L 53.80602892288542 0.5 L 53.80602892288542 -0.5 L 25 -0.5 Z M 112.99352892288542 0.5 L 141.79955784577083 0.5 L 141.79955784577083 3.5 L 148.79955784577083 0 L 141.79955784577083 -3.5 L 141.79955784577083 -0.5 L 112.99352892288542 -0.5 Z"/><text text-anchor="middle" pointer-events="none" font-size="8px" fill="#000000" x="83.39977892288542" y="3" transform="rotate(180 83.39977892288542 0)" font-family="sans-serif">DESTINATION</text></g><g class="relationship" transform="translate(-15.643163551901887 129.4397514314144) rotate(354.7362277450925)"><path class="outline" fill="#A5ABB6" stroke="none" d="M 25 0.5 L 59.97905526093808 0.5 L 59.97905526093808 -0.5 L 25 -0.5 Z M 94.42436776093808 0.5 L 129.40342302187616 0.5 L 129.40342302187616 3.5 L 136.40342302187616 0 L 129.40342302187616 -3.5 L 129.40342302187616 -0.5 L 94.42436776093808 -0.5 Z"/><text text-anchor="middle" pointer-events="none" font-size="8px" fill="#000000" x="77.20171151093808" y="3" font-family="sans-serif">ORIGIN</text></g><g class="relationship" transform="translate(-46.575678758797594 241.75779714150025) rotate(528.4668411590786)"><path class="outline" fill="#A5ABB6" stroke="none" d="M 25 0.5 L 72.7918700038129 0.5 L 72.7918700038129 -0.5 L 25 -0.5 Z M 131.9793700038129 0.5 L 179.7712400076258 0.5 L 179.7712400076258 3.5 L 186.7712400076258 0 L 179.7712400076258 -3.5 L 179.7712400076258 -0.5 L 131.9793700038129 -0.5 Z"/><text text-anchor="middle" pointer-events="none" font-size="8px" fill="#000000" x="102.3856200038129" y="3" transform="rotate(180 102.3856200038129 0)" font-family="sans-serif">DESTINATION</text></g><g class="relationship" transform="translate(-46.575678758797594 241.75779714150025) rotate(326.44359953530125)"><path class="outline" fill="#A5ABB6" stroke="none" d="M 25 0.5 L 94.26930397375207 0.5 L 94.26930397375207 -0.5 L 25 -0.5 Z M 128.71461647375207 0.5 L 197.98392044750415 0.5 L 197.98392044750415 3.5 L 204.98392044750415 0 L 197.98392044750415 -3.5 L 197.98392044750415 -0.5 L 128.71461647375207 -0.5 Z"/><text text-anchor="middle" pointer-events="none" font-size="8px" fill="#000000" x="111.49196022375207" y="3" font-family="sans-serif">ORIGIN</text></g><g class="relationship" transform="translate(74.3509090060931 -110.13962443783596) rotate(238.46316751049744)"><path class="outline" fill="#A5ABB6" stroke="none" d="M 25 0.5 L 61.40775864286627 0.5 L 61.40775864286627 -0.5 L 25 -0.5 Z M 120.59525864286627 0.5 L 157.00301728573254 0.5 L 157.00301728573254 3.5 L 164.00301728573254 0 L 157.00301728573254 -3.5 L 157.00301728573254 -0.5 L 120.59525864286627 -0.5 Z"/><text text-anchor="middle" pointer-events="none" font-size="8px" fill="#000000" x="91.00150864286627" y="3" transform="rotate(180 91.00150864286627 0)" font-family="sans-serif">DESTINATION</text></g><g class="relationship" transform="translate(74.3509090060931 -110.13962443783596) rotate(432.532851645842)"><path class="outline" fill="#A5ABB6" stroke="none" d="M 25 0.5 L 97.09609336066534 0.5 L 97.09609336066534 -0.5 L 25 -0.5 Z M 131.54140586066535 0.5 L 203.63749922133067 0.5 L 203.63749922133067 3.5 L 210.63749922133067 0 L 203.63749922133067 -3.5 L 203.63749922133067 -0.5 L 131.54140586066535 -0.5 Z"/><text text-anchor="middle" pointer-events="none" font-size="8px" fill="#000000" x="114.31874961066534" y="3" font-family="sans-serif">ORIGIN</text></g><g class="relationship" transform="translate(134.92956051691937 -78.82930507807039) rotate(446.99670843296155)"><path class="outline" fill="#A5ABB6" stroke="none" d="M 25 0.5 L 63.77016426871516 0.5 L 63.77016426871516 -0.5 L 25 -0.5 Z M 122.95766426871516 0.5 L 161.72782853743033 0.5 L 161.72782853743033 3.5 L 168.72782853743033 0 L 161.72782853743033 -3.5 L 161.72782853743033 -0.5 L 122.95766426871516 -0.5 Z"/><text text-anchor="middle" pointer-events="none" font-size="8px" fill="#000000" x="93.36391426871516" y="3" font-family="sans-serif">DESTINATION</text></g><g class="relationship" transform="translate(134.92956051691937 -78.82930507807039) rotate(304.03238794111843)"><path class="outline" fill="#A5ABB6" stroke="none" d="M 25 0.5 L 48.50448670878815 0.5 L 48.50448670878815 -0.5 L 25 -0.5 Z M 82.94979920878815 0.5 L 106.4542859175763 0.5 L 106.4542859175763 3.5 L 113.4542859175763 0 L 106.4542859175763 -3.5 L 106.4542859175763 -0.5 L 82.94979920878815 -0.5 Z"/><text text-anchor="middle" pointer-events="none" font-size="8px" fill="#000000" x="65.72714295878815" y="3" font-family="sans-serif">ORIGIN</text></g><g class="relationship" transform="translate(224.40089798516354 -26.44426954386769) rotate(479.34715218705304)"><path class="outline" fill="#A5ABB6" stroke="none" d="M 25 0.5 L 47.82983483667353 0.5 L 47.82983483667353 -0.5 L 25 -0.5 Z M 107.01733483667353 0.5 L 129.84716967334705 0.5 L 129.84716967334705 3.5 L 136.84716967334705 0 L 129.84716967334705 -3.5 L 129.84716967334705 -0.5 L 107.01733483667353 -0.5 Z"/><text text-anchor="middle" pointer-events="none" font-size="8px" fill="#000000" x="77.42358483667353" y="3" transform="rotate(180 77.42358483667353 0)" font-family="sans-serif">DESTINATION</text></g><g class="relationship" transform="translate(224.40089798516354 -26.44426954386769) rotate(265.8985885841229)"><path class="outline" fill="#A5ABB6" stroke="none" d="M 25 0.5 L 63.05442362122601 0.5 L 63.05442362122601 -0.5 L 25 -0.5 Z M 97.49973612122601 0.5 L 135.55415974245201 0.5 L 135.55415974245201 3.5 L 142.55415974245201 0 L 135.55415974245201 -3.5 L 135.55415974245201 -0.5 L 97.49973612122601 -0.5 Z"/><text text-anchor="middle" pointer-events="none" font-size="8px" fill="#000000" x="80.27707987122601" y="3" transform="rotate(180 80.27707987122601 0)" font-family="sans-serif">ORIGIN</text></g><g class="relationship" transform="translate(284.1124745218171 -26.34369255869141) rotate(494.60237269703896)"><path class="outline" fill="#A5ABB6" stroke="none" d="M 25 0.5 L 65.90676703847234 0.5 L 65.90676703847234 -0.5 L 25 -0.5 Z M 125.09426703847234 0.5 L 166.00103407694468 0.5 L 166.00103407694468 3.5 L 173.00103407694468 0 L 166.00103407694468 -3.5 L 166.00103407694468 -0.5 L 125.09426703847234 -0.5 Z"/><text text-anchor="middle" pointer-events="none" font-size="8px" fill="#000000" x="95.50051703847234" y="3" transform="rotate(180 95.50051703847234 0)" font-family="sans-serif">DESTINATION</text></g><g class="relationship" transform="translate(284.1124745218171 -26.34369255869141) rotate(246.79351963778907)"><path class="outline" fill="#A5ABB6" stroke="none" d="M 25 0.5 L 70.25074826609296 0.5 L 70.25074826609296 -0.5 L 25 -0.5 Z M 104.69606076609296 0.5 L 149.9468090321859 0.5 L 149.9468090321859 3.5 L 156.9468090321859 0 L 149.9468090321859 -3.5 L 149.9468090321859 -0.5 L 104.69606076609296 -0.5 Z"/><text text-anchor="middle" pointer-events="none" font-size="8px" fill="#000000" x="87.47340451609296" y="3" transform="rotate(180 87.47340451609296 0)" font-family="sans-serif">ORIGIN</text></g><g class="relationship" transform="translate(194.72413130543907 -78.43263121078903) rotate(464.4205561676452)"><path class="outline" fill="#A5ABB6" stroke="none" d="M 25 0.5 L 66.57909227897869 0.5 L 66.57909227897869 -0.5 L 25 -0.5 Z M 125.76659227897869 0.5 L 167.34568455795738 0.5 L 167.34568455795738 3.5 L 174.34568455795738 0 L 167.34568455795738 -3.5 L 167.34568455795738 -0.5 L 125.76659227897869 -0.5 Z"/><text text-anchor="middle" pointer-events="none" font-size="8px" fill="#000000" x="96.17284227897869" y="3" transform="rotate(180 96.17284227897869 0)" font-family="sans-serif">DESTINATION</text></g><g class="relationship" transform="translate(194.72413130543907 -78.43263121078903) rotate(278.73625365328974)"><path class="outline" fill="#A5ABB6" stroke="none" d="M 25 0.5 L 37.52144069416972 0.5 L 37.52144069416972 -0.5 L 25 -0.5 Z M 71.96675319416971 0.5 L 84.48819388833944 0.5 L 84.48819388833944 3.5 L 91.48819388833944 0 L 84.48819388833944 -3.5 L 84.48819388833944 -0.5 L 71.96675319416971 -0.5 Z"/><text text-anchor="middle" pointer-events="none" font-size="8px" fill="#000000" x="54.74409694416972" y="3" font-family="sans-serif">ORIGIN</text></g><g class="relationship" transform="translate(-16.377735791658083 15.300624765131124) rotate(527.1230782968287)"><path class="outline" fill="#A5ABB6" stroke="none" d="M 25 0.5 L 45.954504480847135 0.5 L 45.954504480847135 -0.5 L 25 -0.5 Z M 105.14200448084713 0.5 L 126.09650896169427 0.5 L 126.09650896169427 3.5 L 133.09650896169427 0 L 126.09650896169427 -3.5 L 126.09650896169427 -0.5 L 105.14200448084713 -0.5 Z"/><text text-anchor="middle" pointer-events="none" font-size="8px" fill="#000000" x="75.54825448084713" y="3" transform="rotate(180 75.54825448084713 0)" font-family="sans-serif">DESTINATION</text></g><g class="relationship" transform="translate(-16.377735791658083 15.300624765131124) rotate(391.60066915857783)"><path class="outline" fill="#A5ABB6" stroke="none" d="M 25 0.5 L 74.06036353028345 0.5 L 74.06036353028345 -0.5 L 25 -0.5 Z M 108.50567603028345 0.5 L 157.5660395605669 0.5 L 157.5660395605669 3.5 L 164.5660395605669 0 L 157.5660395605669 -3.5 L 157.5660395605669 -0.5 L 108.50567603028345 -0.5 Z"/><text text-anchor="middle" pointer-events="none" font-size="8px" fill="#000000" x="91.28301978028345" y="3" font-family="sans-serif">ORIGIN</text></g><g class="relationship" transform="translate(254.63512130292096 -78.11728907144604) rotate(479.61312880000787)"><path class="outline" fill="#A5ABB6" stroke="none" d="M 25 0.5 L 90.1318320985089 0.5 L 90.1318320985089 -0.5 L 25 -0.5 Z M 124.5771445985089 0.5 L 189.7089766970178 0.5 L 189.7089766970178 3.5 L 196.7089766970178 0 L 189.7089766970178 -3.5 L 189.7089766970178 -0.5 L 124.5771445985089 -0.5 Z"/><text text-anchor="middle" pointer-events="none" font-size="8px" fill="#000000" x="107.3544883485089" y="3" transform="rotate(180 107.3544883485089 0)" font-family="sans-serif">ORIGIN</text></g><g class="relationship" transform="translate(254.63512130292096 -78.11728907144604) rotate(249.91374889981523)"><path class="outline" fill="#A5ABB6" stroke="none" d="M 25 0.5 L 28.37074263256983 0.5 L 28.37074263256983 -0.5 L 25 -0.5 Z M 87.55824263256983 0.5 L 90.92898526513966 0.5 L 90.92898526513966 3.5 L 97.92898526513966 0 L 90.92898526513966 -3.5 L 90.92898526513966 -0.5 L 87.55824263256983 -0.5 Z"/><text text-anchor="middle" pointer-events="none" font-size="8px" fill="#000000" x="57.96449263256983" y="3" transform="rotate(180 57.96449263256983 0)" font-family="sans-serif">DESTINATION</text></g><g class="relationship" transform="translate(164.51767541788885 -26.980851579478106) rotate(457.81567107427065)"><path class="outline" fill="#A5ABB6" stroke="none" d="M 25 0.5 L 38.37681014430065 0.5 L 38.37681014430065 -0.5 L 25 -0.5 Z M 97.56431014430065 0.5 L 110.9411202886013 0.5 L 110.9411202886013 3.5 L 117.9411202886013 0 L 110.9411202886013 -3.5 L 110.9411202886013 -0.5 L 97.56431014430065 -0.5 Z"/><text text-anchor="middle" pointer-events="none" font-size="8px" fill="#000000" x="67.97056014430065" y="3" transform="rotate(180 67.97056014430065 0)" font-family="sans-serif">DESTINATION</text></g><g class="relationship" transform="translate(164.51767541788885 -26.980851579478106) rotate(286.0416031067531)"><path class="outline" fill="#A5ABB6" stroke="none" d="M 25 0.5 L 65.94636019388517 0.5 L 65.94636019388517 -0.5 L 25 -0.5 Z M 100.39167269388517 0.5 L 141.33803288777034 0.5 L 141.33803288777034 3.5 L 148.33803288777034 0 L 141.33803288777034 -3.5 L 141.33803288777034 -0.5 L 100.39167269388517 -0.5 Z"/><text text-anchor="middle" pointer-events="none" font-size="8px" fill="#000000" x="83.16901644388517" y="3" font-family="sans-serif">ORIGIN</text></g><g class="relationship" transform="translate(-326.08703103879117 186.44528449244586) rotate(413.59241679249345)"><path class="outline" fill="#A5ABB6" stroke="none" d="M 25 0.5 L 39.945303516221294 0.5 L 39.945303516221294 -0.5 L 25 -0.5 Z M 74.39061601622129 0.5 L 89.33591953244259 0.5 L 89.33591953244259 3.5 L 96.33591953244259 0 L 89.33591953244259 -3.5 L 89.33591953244259 -0.5 L 74.39061601622129 -0.5 Z"/><text text-anchor="middle" pointer-events="none" font-size="8px" fill="#000000" x="57.167959766221294" y="3" font-family="sans-serif">ORIGIN</text></g><g class="relationship" transform="translate(-326.08703103879117 186.44528449244586) rotate(287.7075278602349)"><path class="outline" fill="#A5ABB6" stroke="none" d="M 25 0.5 L 45.188200974248545 0.5 L 45.188200974248545 -0.5 L 25 -0.5 Z M 104.37570097424855 0.5 L 124.56390194849709 0.5 L 124.56390194849709 3.5 L 131.5639019484971 0 L 124.56390194849709 -3.5 L 124.56390194849709 -0.5 L 104.37570097424855 -0.5 Z"/><text text-anchor="middle" pointer-events="none" font-size="8px" fill="#000000" x="74.78195097424855" y="3" font-family="sans-serif">DESTINATION</text></g><g class="relationship" transform="translate(-82.06995281061232 42.13704510250394) rotate(181.4110989738346)"><path class="outline" fill="#A5ABB6" stroke="none" d="M 25 0.5 L 77.50557250666475 0.5 L 77.50557250666475 -0.5 L 25 -0.5 Z M 111.95088500666475 0.5 L 164.4564575133295 0.5 L 164.4564575133295 3.5 L 171.4564575133295 0 L 164.4564575133295 -3.5 L 164.4564575133295 -0.5 L 111.95088500666475 -0.5 Z"/><text text-anchor="middle" pointer-events="none" font-size="8px" fill="#000000" x="94.72822875666475" y="3" transform="rotate(180 94.72822875666475 0)" font-family="sans-serif">ORIGIN</text></g><g class="relationship" transform="translate(-82.06995281061232 42.13704510250394) rotate(377.7006242776023)"><path class="outline" fill="#A5ABB6" stroke="none" d="M 25 0.5 L 86.12506642568775 0.5 L 86.12506642568775 -0.5 L 25 -0.5 Z M 145.31256642568775 0.5 L 206.4376328513755 0.5 L 206.4376328513755 3.5 L 213.4376328513755 0 L 206.4376328513755 -3.5 L 206.4376328513755 -0.5 L 145.31256642568775 -0.5 Z"/><text text-anchor="middle" pointer-events="none" font-size="8px" fill="#000000" x="115.71881642568775" y="3" font-family="sans-serif">DESTINATION</text></g><g class="relationship" transform="translate(-382.71195802661146 205.6079608222562) rotate(391.3894835452993)"><path class="outline" fill="#A5ABB6" stroke="none" d="M 25 0.5 L 42.25412036437935 0.5 L 42.25412036437935 -0.5 L 25 -0.5 Z M 101.44162036437935 0.5 L 118.6957407287587 0.5 L 118.6957407287587 3.5 L 125.6957407287587 0 L 118.6957407287587 -3.5 L 118.6957407287587 -0.5 L 101.44162036437935 -0.5 Z"/><text text-anchor="middle" pointer-events="none" font-size="8px" fill="#000000" x="71.84787036437935" y="3" font-family="sans-serif">DESTINATION</text></g><g class="relationship" transform="translate(-382.71195802661146 205.6079608222562) rotate(301.7727559955095)"><path class="outline" fill="#A5ABB6" stroke="none" d="M 25 0.5 L 78.26585947185626 0.5 L 78.26585947185626 -0.5 L 25 -0.5 Z M 112.71117197185626 0.5 L 165.97703144371252 0.5 L 165.97703144371252 3.5 L 172.97703144371252 0 L 165.97703144371252 -3.5 L 165.97703144371252 -0.5 L 112.71117197185626 -0.5 Z"/><text text-anchor="middle" pointer-events="none" font-size="8px" fill="#000000" x="95.48851572185626" y="3" font-family="sans-serif">ORIGIN</text></g><g class="relationship" transform="translate(-86.53997238284293 101.80231287588667) rotate(198.57657240192975)"><path class="outline" fill="#A5ABB6" stroke="none" d="M 25 0.5 L 68.14430958729871 0.5 L 68.14430958729871 -0.5 L 25 -0.5 Z M 127.33180958729871 0.5 L 170.47611917459741 0.5 L 170.47611917459741 3.5 L 177.47611917459741 0 L 170.47611917459741 -3.5 L 170.47611917459741 -0.5 L 127.33180958729871 -0.5 Z"/><text text-anchor="middle" pointer-events="none" font-size="8px" fill="#000000" x="97.73805958729871" y="3" transform="rotate(180 97.73805958729871 0)" font-family="sans-serif">DESTINATION</text></g><g class="relationship" transform="translate(-86.53997238284293 101.80231287588667) rotate(363.170551665718)"><path class="outline" fill="#A5ABB6" stroke="none" d="M 25 0.5 L 95.2646719948983 0.5 L 95.2646719948983 -0.5 L 25 -0.5 Z M 129.7099844948983 0.5 L 199.9746564897966 0.5 L 199.9746564897966 3.5 L 206.9746564897966 0 L 199.9746564897966 -3.5 L 199.9746564897966 -0.5 L 129.7099844948983 -0.5 Z"/><text text-anchor="middle" pointer-events="none" font-size="8px" fill="#000000" x="112.4873282448983" y="3" font-family="sans-serif">ORIGIN</text></g><g class="relationship" transform="translate(-371.07805347126896 146.94897940605716) rotate(409.5313197684542)"><path class="outline" fill="#A5ABB6" stroke="none" d="M 25 0.5 L 69.41690692454807 0.5 L 69.41690692454807 -0.5 L 25 -0.5 Z M 103.86221942454807 0.5 L 148.27912634909615 0.5 L 148.27912634909615 3.5 L 155.27912634909615 0 L 148.27912634909615 -3.5 L 148.27912634909615 -0.5 L 103.86221942454807 -0.5 Z"/><text text-anchor="middle" pointer-events="none" font-size="8px" fill="#000000" x="86.63956317454807" y="3" font-family="sans-serif">ORIGIN</text></g><g class="relationship" transform="translate(-371.07805347126896 146.94897940605716) rotate(310.18473127340496)"><path class="outline" fill="#A5ABB6" stroke="none" d="M 25 0.5 L 38.66962031838668 0.5 L 38.66962031838668 -0.5 L 25 -0.5 Z M 97.85712031838668 0.5 L 111.52674063677335 0.5 L 111.52674063677335 3.5 L 118.52674063677335 0 L 111.52674063677335 -3.5 L 111.52674063677335 -0.5 L 97.85712031838668 -0.5 Z"/><text text-anchor="middle" pointer-events="none" font-size="8px" fill="#000000" x="68.26337031838668" y="3" font-family="sans-serif">DESTINATION</text></g><g class="relationship" transform="translate(-142.16512289844556 472.0744173207085) rotate(239.23381452541457)"><path class="outline" fill="#A5ABB6" stroke="none" d="M 25 0.5 L 88.65966663741226 0.5 L 88.65966663741226 -0.5 L 25 -0.5 Z M 123.10497913741226 0.5 L 186.76464577482452 0.5 L 186.76464577482452 3.5 L 193.76464577482452 0 L 186.76464577482452 -3.5 L 186.76464577482452 -0.5 L 123.10497913741226 -0.5 Z"/><text text-anchor="middle" pointer-events="none" font-size="8px" fill="#000000" x="105.88232288741226" y="3" transform="rotate(180 105.88232288741226 0)" font-family="sans-serif">ORIGIN</text></g><g class="relationship" transform="translate(-142.16512289844556 472.0744173207085) rotate(366.0822788461985)"><path class="outline" fill="#A5ABB6" stroke="none" d="M 25 0.5 L 67.55235287303479 0.5 L 67.55235287303479 -0.5 L 25 -0.5 Z M 126.73985287303479 0.5 L 169.29220574606958 0.5 L 169.29220574606958 3.5 L 176.29220574606958 0 L 169.29220574606958 -3.5 L 169.29220574606958 -0.5 L 126.73985287303479 -0.5 Z"/><text text-anchor="middle" pointer-events="none" font-size="8px" fill="#000000" x="97.14610287303479" y="3" font-family="sans-serif">DESTINATION</text></g><g class="relationship" transform="translate(166.4464967817811 330.8763256091731) rotate(483.71487139042745)"><path class="outline" fill="#A5ABB6" stroke="none" d="M 25 0.5 L 64.60061433633655 0.5 L 64.60061433633655 -0.5 L 25 -0.5 Z M 123.78811433633655 0.5 L 163.3887286726731 0.5 L 163.3887286726731 3.5 L 170.3887286726731 0 L 163.3887286726731 -3.5 L 163.3887286726731 -0.5 L 123.78811433633655 -0.5 Z"/><text text-anchor="middle" pointer-events="none" font-size="8px" fill="#000000" x="94.19436433633655" y="3" transform="rotate(180 94.19436433633655 0)" font-family="sans-serif">DESTINATION</text></g><g class="relationship" transform="translate(166.4464967817811 330.8763256091731) rotate(264.3569655230611)"><path class="outline" fill="#A5ABB6" stroke="none" d="M 25 0.5 L 87.92581430493978 0.5 L 87.92581430493978 -0.5 L 25 -0.5 Z M 122.37112680493978 0.5 L 185.29694110987955 0.5 L 185.29694110987955 3.5 L 192.29694110987955 0 L 185.29694110987955 -3.5 L 185.29694110987955 -0.5 L 122.37112680493978 -0.5 Z"/><text text-anchor="middle" pointer-events="none" font-size="8px" fill="#000000" x="105.14847055493978" y="3" transform="rotate(180 105.14847055493978 0)" font-family="sans-serif">ORIGIN</text></g><g class="relationship" transform="translate(106.70992221461752 330.3859712696451) rotate(466.6382686822468)"><path class="outline" fill="#A5ABB6" stroke="none" d="M 25 0.5 L 51.97633744266872 0.5 L 51.97633744266872 -0.5 L 25 -0.5 Z M 111.16383744266872 0.5 L 138.14017488533744 0.5 L 138.14017488533744 3.5 L 145.14017488533744 0 L 138.14017488533744 -3.5 L 138.14017488533744 -0.5 L 111.16383744266872 -0.5 Z"/><text text-anchor="middle" pointer-events="none" font-size="8px" fill="#000000" x="81.57008744266872" y="3" transform="rotate(180 81.57008744266872 0)" font-family="sans-serif">DESTINATION</text></g><g class="relationship" transform="translate(106.70992221461752 330.3859712696451) rotate(280.0840734161063)"><path class="outline" fill="#A5ABB6" stroke="none" d="M 25 0.5 L 88.84674801148424 0.5 L 88.84674801148424 -0.5 L 25 -0.5 Z M 123.29206051148424 0.5 L 187.13880852296847 0.5 L 187.13880852296847 3.5 L 194.13880852296847 0 L 187.13880852296847 -3.5 L 187.13880852296847 -0.5 L 123.29206051148424 -0.5 Z"/><text text-anchor="middle" pointer-events="none" font-size="8px" fill="#000000" x="106.06940426148424" y="3" font-family="sans-serif">ORIGIN</text></g><g class="relationship" transform="translate(-57.353581509846656 -132.06486358715213) rotate(502.5493134229331)"><path class="outline" fill="#A5ABB6" stroke="none" d="M 25 0.5 L 106.16790649510784 0.5 L 106.16790649510784 -0.5 L 25 -0.5 Z M 165.35540649510784 0.5 L 246.5233129902157 0.5 L 246.5233129902157 3.5 L 253.5233129902157 0 L 246.5233129902157 -3.5 L 246.5233129902157 -0.5 L 165.35540649510784 -0.5 Z"/><text text-anchor="middle" pointer-events="none" font-size="8px" fill="#000000" x="135.76165649510784" y="3" transform="rotate(180 135.76165649510784 0)" font-family="sans-serif">DESTINATION</text></g><g class="relationship" transform="translate(-57.353581509846656 -132.06486358715213) rotate(347.15677316331903)"><path class="outline" fill="#A5ABB6" stroke="none" d="M 25 0.5 L 117.62384034405747 0.5 L 117.62384034405747 -0.5 L 25 -0.5 Z M 152.06915284405747 0.5 L 244.69299318811494 0.5 L 244.69299318811494 3.5 L 251.69299318811494 0 L 244.69299318811494 -3.5 L 244.69299318811494 -0.5 L 152.06915284405747 -0.5 Z"/><text text-anchor="middle" pointer-events="none" font-size="8px" fill="#000000" x="134.84649659405747" y="3" font-family="sans-serif">ORIGIN</text></g></g><g class="layer nodes"><g class="node" transform="translate(-254.0710795704203,284.0982829251035)"><circle class="outline" cx="0" cy="0" r="25" fill="#ECB5C9" stroke="#da7298" stroke-width="2px"/><text text-anchor="middle" pointer-events="none" font-family="sans-serif" dy="1.5625" font-size="25" fill="#2A2C34"/><text text-anchor="middle" pointer-events="none" x="0" y="5" font-size="10px" fill="#2A2C34" font-family="sans-serif"> LAX</text></g><g class="node" transform="translate(740.5442782683757,220.86446751897859)"><circle class="outline" cx="0" cy="0" r="25" fill="#ECB5C9" stroke="#da7298" stroke-width="2px"/><text text-anchor="middle" pointer-events="none" font-family="sans-serif" dy="1.5625" font-size="25" fill="#2A2C34"/><text text-anchor="middle" pointer-events="none" x="0" y="5" font-size="10px" fill="#2A2C34" font-family="sans-serif"> DAY</text></g><g class="node" transform="translate(-82.38627378931255,193.98613792833467)"><circle class="outline" cx="0" cy="0" r="25" fill="#4C8EDA" stroke="#2870c2" stroke-width="2px"/><text text-anchor="middle" pointer-events="none" font-family="sans-serif" dy="1.5625" font-size="25" fill="#FFFFFF"/><text text-anchor="middle" pointer-events="none" x="0" y="5" font-size="10px" fill="#FFFFFF" font-family="sans-serif"> 11/30/20…</text></g><g class="node" transform="translate(145.07960581357815,114.63244341579542)"><circle class="outline" cx="0" cy="0" r="25" fill="#ECB5C9" stroke="#da7298" stroke-width="2px"/><text text-anchor="middle" pointer-events="none" font-family="sans-serif" dy="1.5625" font-size="25" fill="#2A2C34"/><text text-anchor="middle" pointer-events="none" x="0" y="5" font-size="10px" fill="#2A2C34" font-family="sans-serif"> ORD</text></g><g class="node" transform="translate(335.55174494574914,125.88242494122017)"><circle class="outline" cx="0" cy="0" r="25" fill="#4C8EDA" stroke="#2870c2" stroke-width="2px"/><text text-anchor="middle" pointer-events="none" font-family="sans-serif" dy="1.5625" font-size="25" fill="#FFFFFF"/><text text-anchor="middle" pointer-events="none" x="0" y="5" font-size="10px" fill="#FFFFFF" font-family="sans-serif"> 11/29/20…</text></g><g class="node" transform="translate(534.9423257048807,99.7984804645248)"><circle class="outline" cx="0" cy="0" r="25" fill="#ECB5C9" stroke="#da7298" stroke-width="2px"/><text text-anchor="middle" pointer-events="none" font-family="sans-serif" dy="1.5625" font-size="25" fill="#2A2C34"/><text text-anchor="middle" pointer-events="none" x="0" y="5" font-size="10px" fill="#2A2C34" font-family="sans-serif"> MSP</text></g><g class="node" transform="translate(665.4935341248645,78.8632969103837)"><circle class="outline" cx="0" cy="0" r="25" fill="#4C8EDA" stroke="#2870c2" stroke-width="2px"/><text text-anchor="middle" pointer-events="none" font-family="sans-serif" dy="1.5625" font-size="25" fill="#FFFFFF"/><text text-anchor="middle" pointer-events="none" x="0" y="5" font-size="10px" fill="#FFFFFF" font-family="sans-serif"> 11/25/20…</text></g><g class="node" transform="translate(-29.518908785187243,389.70593685346074)"><circle class="outline" cx="0" cy="0" r="25" fill="#4C8EDA" stroke="#2870c2" stroke-width="2px"/><text text-anchor="middle" pointer-events="none" font-family="sans-serif" dy="1.5625" font-size="25" fill="#FFFFFF"/><text text-anchor="middle" pointer-events="none" x="0" y="5" font-size="10px" fill="#FFFFFF" font-family="sans-serif"> 11/29/20…</text></g><g class="node" transform="translate(233.1388407134367,346.23529582316667)"><circle class="outline" cx="0" cy="0" r="25" fill="#ECB5C9" stroke="#da7298" stroke-width="2px"/><text text-anchor="middle" pointer-events="none" font-family="sans-serif" dy="1.5625" font-size="25" fill="#2A2C34"/><text text-anchor="middle" pointer-events="none" x="0" y="5" font-size="10px" fill="#2A2C34" font-family="sans-serif"> LAS</text></g><g class="node" transform="translate(211.4026911206752,242.64249091305734)"><circle class="outline" cx="0" cy="0" r="25" fill="#4C8EDA" stroke="#2870c2" stroke-width="2px"/><text text-anchor="middle" pointer-events="none" font-family="sans-serif" dy="1.5625" font-size="25" fill="#FFFFFF"/><text text-anchor="middle" pointer-events="none" x="0" y="5" font-size="10px" fill="#FFFFFF" font-family="sans-serif"> 11/29/20…</text></g><g class="node" transform="translate(270.5688208370617,233.4772113934678)"><circle class="outline" cx="0" cy="0" r="25" fill="#4C8EDA" stroke="#2870c2" stroke-width="2px"/><text text-anchor="middle" pointer-events="none" font-family="sans-serif" dy="1.5625" font-size="25" fill="#FFFFFF"/><text text-anchor="middle" pointer-events="none" x="0" y="5" font-size="10px" fill="#FFFFFF" font-family="sans-serif"> 11/29/20…</text></g><g class="node" transform="translate(258.32146135384204,57.49269067955146)"><circle class="outline" cx="0" cy="0" r="25" fill="#4C8EDA" stroke="#2870c2" stroke-width="2px"/><text text-anchor="middle" pointer-events="none" font-family="sans-serif" dy="1.5625" font-size="25" fill="#FFFFFF"/><text text-anchor="middle" pointer-events="none" x="0" y="5" font-size="10px" fill="#FFFFFF" font-family="sans-serif"> 11/29/20…</text></g><g class="node" transform="translate(212.41708683834662,-193.56932666396727)"><circle class="outline" cx="0" cy="0" r="25" fill="#ECB5C9" stroke="#da7298" stroke-width="2px"/><text text-anchor="middle" pointer-events="none" font-family="sans-serif" dy="1.5625" font-size="25" fill="#2A2C34"/><text text-anchor="middle" pointer-events="none" x="0" y="5" font-size="10px" fill="#2A2C34" font-family="sans-serif"> DEN</text></g><g class="node" transform="translate(417.9851608715957,-88.32320659194114)"><circle class="outline" cx="0" cy="0" r="25" fill="#4C8EDA" stroke="#2870c2" stroke-width="2px"/><text text-anchor="middle" pointer-events="none" font-family="sans-serif" dy="1.5625" font-size="25" fill="#FFFFFF"/><text text-anchor="middle" pointer-events="none" x="0" y="5" font-size="10px" fill="#FFFFFF" font-family="sans-serif"> 11/29/20…</text></g><g class="node" transform="translate(651.5395564055725,137.13337980149748)"><circle class="outline" cx="0" cy="0" r="25" fill="#4C8EDA" stroke="#2870c2" stroke-width="2px"/><text text-anchor="middle" pointer-events="none" font-family="sans-serif" dy="1.5625" font-size="25" fill="#FFFFFF"/><text text-anchor="middle" pointer-events="none" x="0" y="5" font-size="10px" fill="#FFFFFF" font-family="sans-serif"> 11/23/20…</text></g><g class="node" transform="translate(634.5308285796377,194.4999451035855)"><circle class="outline" cx="0" cy="0" r="25" fill="#4C8EDA" stroke="#2870c2" stroke-width="2px"/><text text-anchor="middle" pointer-events="none" font-family="sans-serif" dy="1.5625" font-size="25" fill="#FFFFFF"/><text text-anchor="middle" pointer-events="none" x="0" y="5" font-size="10px" fill="#FFFFFF" font-family="sans-serif"> 11/20/20…</text></g><g class="node" transform="translate(610.8207416924203,249.41135030981923)"><circle class="outline" cx="0" cy="0" r="25" fill="#4C8EDA" stroke="#2870c2" stroke-width="2px"/><text text-anchor="middle" pointer-events="none" font-family="sans-serif" dy="1.5625" font-size="25" fill="#FFFFFF"/><text text-anchor="middle" pointer-events="none" x="0" y="5" font-size="10px" fill="#FFFFFF" font-family="sans-serif"> 11/11/20…</text></g><g class="node" transform="translate(375.0101319593256,81.15453270878663)"><circle class="outline" cx="0" cy="0" r="25" fill="#4C8EDA" stroke="#2870c2" stroke-width="2px"/><text text-anchor="middle" pointer-events="none" font-family="sans-serif" dy="1.5625" font-size="25" fill="#FFFFFF"/><text text-anchor="middle" pointer-events="none" x="0" y="5" font-size="10px" fill="#FFFFFF" font-family="sans-serif"> 11/29/20…</text></g><g class="node" transform="translate(376.1408523044479,169.52110288900604)"><circle class="outline" cx="0" cy="0" r="25" fill="#4C8EDA" stroke="#2870c2" stroke-width="2px"/><text text-anchor="middle" pointer-events="none" font-family="sans-serif" dy="1.5625" font-size="25" fill="#FFFFFF"/><text text-anchor="middle" pointer-events="none" x="0" y="5" font-size="10px" fill="#FFFFFF" font-family="sans-serif"> 11/30/20…</text></g><g class="node" transform="translate(-171.2965923389213,419.33911255985765)"><circle class="outline" cx="0" cy="0" r="25" fill="#4C8EDA" stroke="#2870c2" stroke-width="2px"/><text text-anchor="middle" pointer-events="none" font-family="sans-serif" dy="1.5625" font-size="25" fill="#FFFFFF"/><text text-anchor="middle" pointer-events="none" x="0" y="5" font-size="10px" fill="#FFFFFF" font-family="sans-serif"> 11/3/2015</text></g><g class="node" transform="translate(-60.8308159320412,338.4191247330196)"><circle class="outline" cx="0" cy="0" r="25" fill="#ECB5C9" stroke="#da7298" stroke-width="2px"/><text text-anchor="middle" pointer-events="none" font-family="sans-serif" dy="1.5625" font-size="25" fill="#2A2C34"/><text text-anchor="middle" pointer-events="none" x="0" y="5" font-size="10px" fill="#2A2C34" font-family="sans-serif"> SMF</text></g><g class="node" transform="translate(90.44563118145979,59.4105003476385)"><circle class="outline" cx="0" cy="0" r="25" fill="#4C8EDA" stroke="#2870c2" stroke-width="2px"/><text text-anchor="middle" pointer-events="none" font-family="sans-serif" dy="1.5625" font-size="25" fill="#FFFFFF"/><text text-anchor="middle" pointer-events="none" x="0" y="5" font-size="10px" fill="#FFFFFF" font-family="sans-serif"> 11/30/20…</text></g><g class="node" transform="translate(-166.47620610046928,327.07381071517227)"><circle class="outline" cx="0" cy="0" r="25" fill="#4C8EDA" stroke="#2870c2" stroke-width="2px"/><text text-anchor="middle" pointer-events="none" font-family="sans-serif" dy="1.5625" font-size="25" fill="#FFFFFF"/><text text-anchor="middle" pointer-events="none" x="0" y="5" font-size="10px" fill="#FFFFFF" font-family="sans-serif"> 11/1/2015</text></g><g class="node" transform="translate(-192.1434460660887,-26.461335366382414)"><circle class="outline" cx="0" cy="0" r="25" fill="#4C8EDA" stroke="#2870c2" stroke-width="2px"/><text text-anchor="middle" pointer-events="none" font-family="sans-serif" dy="1.5625" font-size="25" fill="#FFFFFF"/><text text-anchor="middle" pointer-events="none" x="0" y="5" font-size="10px" fill="#FFFFFF" font-family="sans-serif"> 11/29/20…</text></g><g class="node" transform="translate(-24.5064718352029,-271.2276711585963)"><circle class="outline" cx="0" cy="0" r="25" fill="#ECB5C9" stroke="#da7298" stroke-width="2px"/><text text-anchor="middle" pointer-events="none" font-family="sans-serif" dy="1.5625" font-size="25" fill="#2A2C34"/><text text-anchor="middle" pointer-events="none" x="0" y="5" font-size="10px" fill="#2A2C34" font-family="sans-serif"> SFO</text></g><g class="node" transform="translate(134.49002305590432,-283.82410263930666)"><circle class="outline" cx="0" cy="0" r="25" fill="#4C8EDA" stroke="#2870c2" stroke-width="2px"/><text text-anchor="middle" pointer-events="none" font-family="sans-serif" dy="1.5625" font-size="25" fill="#FFFFFF"/><text text-anchor="middle" pointer-events="none" x="0" y="5" font-size="10px" fill="#FFFFFF" font-family="sans-serif"> 11/30/20…</text></g><g class="node" transform="translate(-206.75919721126076,371.1986921368283)"><circle class="outline" cx="0" cy="0" r="25" fill="#4C8EDA" stroke="#2870c2" stroke-width="2px"/><text text-anchor="middle" pointer-events="none" font-family="sans-serif" dy="1.5625" font-size="25" fill="#FFFFFF"/><text text-anchor="middle" pointer-events="none" x="0" y="5" font-size="10px" fill="#FFFFFF" font-family="sans-serif"> 11/2/2015</text></g><g class="node" transform="translate(708.8358150077304,119.97582924022093)"><circle class="outline" cx="0" cy="0" r="25" fill="#4C8EDA" stroke="#2870c2" stroke-width="2px"/><text text-anchor="middle" pointer-events="none" font-family="sans-serif" dy="1.5625" font-size="25" fill="#FFFFFF"/><text text-anchor="middle" pointer-events="none" x="0" y="5" font-size="10px" fill="#FFFFFF" font-family="sans-serif"> 11/16/20…</text></g><g class="node" transform="translate(-231.60340832499887,425.4591216325742)"><circle class="outline" cx="0" cy="0" r="25" fill="#4C8EDA" stroke="#2870c2" stroke-width="2px"/><text text-anchor="middle" pointer-events="none" font-family="sans-serif" dy="1.5625" font-size="25" fill="#FFFFFF"/><text text-anchor="middle" pointer-events="none" x="0" y="5" font-size="10px" fill="#FFFFFF" font-family="sans-serif"> 11/4/2015</text></g><g class="node" transform="translate(92.03352928520455,272.1240128312956)"><circle class="outline" cx="0" cy="0" r="25" fill="#4C8EDA" stroke="#2870c2" stroke-width="2px"/><text text-anchor="middle" pointer-events="none" font-family="sans-serif" dy="1.5625" font-size="25" fill="#FFFFFF"/><text text-anchor="middle" pointer-events="none" x="0" y="5" font-size="10px" fill="#FFFFFF" font-family="sans-serif"> 11/30/20…</text></g><g class="node" transform="translate(44.64949595583928,235.6876046971443)"><circle class="outline" cx="0" cy="0" r="25" fill="#4C8EDA" stroke="#2870c2" stroke-width="2px"/><text text-anchor="middle" pointer-events="none" font-family="sans-serif" dy="1.5625" font-size="25" fill="#FFFFFF"/><text text-anchor="middle" pointer-events="none" x="0" y="5" font-size="10px" fill="#FFFFFF" font-family="sans-serif"> 11/29/20…</text></g><g class="node" transform="translate(21.742022534386223,-81.89792929930515)"><circle class="outline" cx="0" cy="0" r="25" fill="#4C8EDA" stroke="#2870c2" stroke-width="2px"/><text text-anchor="middle" pointer-events="none" font-family="sans-serif" dy="1.5625" font-size="25" fill="#FFFFFF"/><text text-anchor="middle" pointer-events="none" x="0" y="5" font-size="10px" fill="#FFFFFF" font-family="sans-serif"> 11/29/20…</text></g><g class="node" transform="translate(180.61128183042828,-321.8670891311908)"><circle class="outline" cx="0" cy="0" r="25" fill="#4C8EDA" stroke="#2870c2" stroke-width="2px"/><text text-anchor="middle" pointer-events="none" font-family="sans-serif" dy="1.5625" font-size="25" fill="#FFFFFF"/><text text-anchor="middle" pointer-events="none" x="0" y="5" font-size="10px" fill="#FFFFFF" font-family="sans-serif"> 11/29/20…</text></g><g class="node" transform="translate(68.97649440956549,-363.89938348687946)"><circle class="outline" cx="0" cy="0" r="25" fill="#4C8EDA" stroke="#2870c2" stroke-width="2px"/><text text-anchor="middle" pointer-events="none" font-family="sans-serif" dy="1.5625" font-size="25" fill="#FFFFFF"/><text text-anchor="middle" pointer-events="none" x="0" y="5" font-size="10px" fill="#FFFFFF" font-family="sans-serif"> 11/29/20…</text></g><g class="node" transform="translate(124.8913026239768,-342.8953220702464)"><circle class="outline" cx="0" cy="0" r="25" fill="#4C8EDA" stroke="#2870c2" stroke-width="2px"/><text text-anchor="middle" pointer-events="none" font-family="sans-serif" dy="1.5625" font-size="25" fill="#FFFFFF"/><text text-anchor="middle" pointer-events="none" x="0" y="5" font-size="10px" fill="#FFFFFF" font-family="sans-serif"> 11/30/20…</text></g><g class="node" transform="translate(88.07553696989451,-245.85177621978795)"><circle class="outline" cx="0" cy="0" r="25" fill="#4C8EDA" stroke="#2870c2" stroke-width="2px"/><text text-anchor="middle" pointer-events="none" font-family="sans-serif" dy="1.5625" font-size="25" fill="#FFFFFF"/><text text-anchor="middle" pointer-events="none" x="0" y="5" font-size="10px" fill="#FFFFFF" font-family="sans-serif"> 11/29/20…</text></g><g class="node" transform="translate(78.62954352268706,-304.9733047306814)"><circle class="outline" cx="0" cy="0" r="25" fill="#4C8EDA" stroke="#2870c2" stroke-width="2px"/><text text-anchor="middle" pointer-events="none" font-family="sans-serif" dy="1.5625" font-size="25" fill="#FFFFFF"/><text text-anchor="middle" pointer-events="none" x="0" y="5" font-size="10px" fill="#FFFFFF" font-family="sans-serif"> 11/30/20…</text></g><g class="node" transform="translate(-279.2562970850004,149.0992229211219)"><circle class="outline" cx="0" cy="0" r="25" fill="#4C8EDA" stroke="#2870c2" stroke-width="2px"/><text text-anchor="middle" pointer-events="none" font-family="sans-serif" dy="1.5625" font-size="25" fill="#FFFFFF"/><text text-anchor="middle" pointer-events="none" x="0" y="5" font-size="10px" fill="#FFFFFF" font-family="sans-serif"> 11/30/20…</text></g><g class="node" transform="translate(-170.4982817417807,50.53361302771285)"><circle class="outline" cx="0" cy="0" r="25" fill="#ECB5C9" stroke="#da7298" stroke-width="2px"/><text text-anchor="middle" pointer-events="none" font-family="sans-serif" dy="1.5625" font-size="25" fill="#2A2C34"/><text text-anchor="middle" pointer-events="none" x="0" y="5" font-size="10px" fill="#2A2C34" font-family="sans-serif"> IAH</text></g><g class="node" transform="translate(1.874412389548655,72.19607392579557)"><circle class="outline" cx="0" cy="0" r="25" fill="#4C8EDA" stroke="#2870c2" stroke-width="2px"/><text text-anchor="middle" pointer-events="none" font-family="sans-serif" dy="1.5625" font-size="25" fill="#FFFFFF"/><text text-anchor="middle" pointer-events="none" x="0" y="5" font-size="10px" fill="#FFFFFF" font-family="sans-serif"> 11/29/20…</text></g><g class="node" transform="translate(-15.643163551901887,129.4397514314144)"><circle class="outline" cx="0" cy="0" r="25" fill="#4C8EDA" stroke="#2870c2" stroke-width="2px"/><text text-anchor="middle" pointer-events="none" font-family="sans-serif" dy="1.5625" font-size="25" fill="#FFFFFF"/><text text-anchor="middle" pointer-events="none" x="0" y="5" font-size="10px" fill="#FFFFFF" font-family="sans-serif"> 11/29/20…</text></g><g class="node" transform="translate(-46.575678758797594,241.75779714150025)"><circle class="outline" cx="0" cy="0" r="25" fill="#4C8EDA" stroke="#2870c2" stroke-width="2px"/><text text-anchor="middle" pointer-events="none" font-family="sans-serif" dy="1.5625" font-size="25" fill="#FFFFFF"/><text text-anchor="middle" pointer-events="none" x="0" y="5" font-size="10px" fill="#FFFFFF" font-family="sans-serif"> 11/29/20…</text></g><g class="node" transform="translate(74.3509090060931,-110.13962443783596)"><circle class="outline" cx="0" cy="0" r="25" fill="#4C8EDA" stroke="#2870c2" stroke-width="2px"/><text text-anchor="middle" pointer-events="none" font-family="sans-serif" dy="1.5625" font-size="25" fill="#FFFFFF"/><text text-anchor="middle" pointer-events="none" x="0" y="5" font-size="10px" fill="#FFFFFF" font-family="sans-serif"> 11/30/20…</text></g><g class="node" transform="translate(134.92956051691937,-78.82930507807039)"><circle class="outline" cx="0" cy="0" r="25" fill="#4C8EDA" stroke="#2870c2" stroke-width="2px"/><text text-anchor="middle" pointer-events="none" font-family="sans-serif" dy="1.5625" font-size="25" fill="#FFFFFF"/><text text-anchor="middle" pointer-events="none" x="0" y="5" font-size="10px" fill="#FFFFFF" font-family="sans-serif"> 11/29/20…</text></g><g class="node" transform="translate(224.40089798516354,-26.44426954386769)"><circle class="outline" cx="0" cy="0" r="25" fill="#4C8EDA" stroke="#2870c2" stroke-width="2px"/><text text-anchor="middle" pointer-events="none" font-family="sans-serif" dy="1.5625" font-size="25" fill="#FFFFFF"/><text text-anchor="middle" pointer-events="none" x="0" y="5" font-size="10px" fill="#FFFFFF" font-family="sans-serif"> 11/29/20…</text></g><g class="node" transform="translate(284.1124745218171,-26.34369255869141)"><circle class="outline" cx="0" cy="0" r="25" fill="#4C8EDA" stroke="#2870c2" stroke-width="2px"/><text text-anchor="middle" pointer-events="none" font-family="sans-serif" dy="1.5625" font-size="25" fill="#FFFFFF"/><text text-anchor="middle" pointer-events="none" x="0" y="5" font-size="10px" fill="#FFFFFF" font-family="sans-serif"> 11/29/20…</text></g><g class="node" transform="translate(194.72413130543907,-78.43263121078903)"><circle class="outline" cx="0" cy="0" r="25" fill="#4C8EDA" stroke="#2870c2" stroke-width="2px"/><text text-anchor="middle" pointer-events="none" font-family="sans-serif" dy="1.5625" font-size="25" fill="#FFFFFF"/><text text-anchor="middle" pointer-events="none" x="0" y="5" font-size="10px" fill="#FFFFFF" font-family="sans-serif"> 11/30/20…</text></g><g class="node" transform="translate(-16.377735791658083,15.300624765131124)"><circle class="outline" cx="0" cy="0" r="25" fill="#4C8EDA" stroke="#2870c2" stroke-width="2px"/><text text-anchor="middle" pointer-events="none" font-family="sans-serif" dy="1.5625" font-size="25" fill="#FFFFFF"/><text text-anchor="middle" pointer-events="none" x="0" y="5" font-size="10px" fill="#FFFFFF" font-family="sans-serif"> 11/30/20…</text></g><g class="node" transform="translate(254.63512130292096,-78.11728907144604)"><circle class="outline" cx="0" cy="0" r="25" fill="#4C8EDA" stroke="#2870c2" stroke-width="2px"/><text text-anchor="middle" pointer-events="none" font-family="sans-serif" dy="1.5625" font-size="25" fill="#FFFFFF"/><text text-anchor="middle" pointer-events="none" x="0" y="5" font-size="10px" fill="#FFFFFF" font-family="sans-serif"> 11/29/20…</text></g><g class="node" transform="translate(164.51767541788885,-26.980851579478106)"><circle class="outline" cx="0" cy="0" r="25" fill="#4C8EDA" stroke="#2870c2" stroke-width="2px"/><text text-anchor="middle" pointer-events="none" font-family="sans-serif" dy="1.5625" font-size="25" fill="#FFFFFF"/><text text-anchor="middle" pointer-events="none" x="0" y="5" font-size="10px" fill="#FFFFFF" font-family="sans-serif"> 11/29/20…</text></g><g class="node" transform="translate(-326.08703103879117,186.44528449244586)"><circle class="outline" cx="0" cy="0" r="25" fill="#4C8EDA" stroke="#2870c2" stroke-width="2px"/><text text-anchor="middle" pointer-events="none" font-family="sans-serif" dy="1.5625" font-size="25" fill="#FFFFFF"/><text text-anchor="middle" pointer-events="none" x="0" y="5" font-size="10px" fill="#FFFFFF" font-family="sans-serif"> 11/30/20…</text></g><g class="node" transform="translate(-278.46683258073926,37.29914108888896)"><circle class="outline" cx="0" cy="0" r="25" fill="#ECB5C9" stroke="#da7298" stroke-width="2px"/><text text-anchor="middle" pointer-events="none" font-family="sans-serif" dy="1.5625" font-size="25" fill="#2A2C34"/><text text-anchor="middle" pointer-events="none" x="0" y="5" font-size="10px" fill="#2A2C34" font-family="sans-serif"> EWR</text></g><g class="node" transform="translate(-82.06995281061232,42.13704510250394)"><circle class="outline" cx="0" cy="0" r="25" fill="#4C8EDA" stroke="#2870c2" stroke-width="2px"/><text text-anchor="middle" pointer-events="none" font-family="sans-serif" dy="1.5625" font-size="25" fill="#FFFFFF"/><text text-anchor="middle" pointer-events="none" x="0" y="5" font-size="10px" fill="#FFFFFF" font-family="sans-serif"> 11/30/20…</text></g><g class="node" transform="translate(-382.71195802661146,205.6079608222562)"><circle class="outline" cx="0" cy="0" r="25" fill="#4C8EDA" stroke="#2870c2" stroke-width="2px"/><text text-anchor="middle" pointer-events="none" font-family="sans-serif" dy="1.5625" font-size="25" fill="#FFFFFF"/><text text-anchor="middle" pointer-events="none" x="0" y="5" font-size="10px" fill="#FFFFFF" font-family="sans-serif"> 11/29/20…</text></g><g class="node" transform="translate(-86.53997238284293,101.80231287588667)"><circle class="outline" cx="0" cy="0" r="25" fill="#4C8EDA" stroke="#2870c2" stroke-width="2px"/><text text-anchor="middle" pointer-events="none" font-family="sans-serif" dy="1.5625" font-size="25" fill="#FFFFFF"/><text text-anchor="middle" pointer-events="none" x="0" y="5" font-size="10px" fill="#FFFFFF" font-family="sans-serif"> 11/30/20…</text></g><g class="node" transform="translate(-371.07805347126896,146.94897940605716)"><circle class="outline" cx="0" cy="0" r="25" fill="#4C8EDA" stroke="#2870c2" stroke-width="2px"/><text text-anchor="middle" pointer-events="none" font-family="sans-serif" dy="1.5625" font-size="25" fill="#FFFFFF"/><text text-anchor="middle" pointer-events="none" x="0" y="5" font-size="10px" fill="#FFFFFF" font-family="sans-serif"> 11/29/20…</text></g><g class="node" transform="translate(-142.16512289844556,472.0744173207085)"><circle class="outline" cx="0" cy="0" r="25" fill="#4C8EDA" stroke="#2870c2" stroke-width="2px"/><text text-anchor="middle" pointer-events="none" font-family="sans-serif" dy="1.5625" font-size="25" fill="#FFFFFF"/><text text-anchor="middle" pointer-events="none" x="0" y="5" font-size="10px" fill="#FFFFFF" font-family="sans-serif"> 11/29/20…</text></g><g class="node" transform="translate(57.99396136572218,493.40263995288774)"><circle class="outline" cx="0" cy="0" r="25" fill="#ECB5C9" stroke="#da7298" stroke-width="2px"/><text text-anchor="middle" pointer-events="none" font-family="sans-serif" dy="1.5625" font-size="25" fill="#2A2C34"/><text text-anchor="middle" pointer-events="none" x="0" y="5" font-size="10px" fill="#2A2C34" font-family="sans-serif"> BOS</text></g><g class="node" transform="translate(166.4464967817811,330.8763256091731)"><circle class="outline" cx="0" cy="0" r="25" fill="#4C8EDA" stroke="#2870c2" stroke-width="2px"/><text text-anchor="middle" pointer-events="none" font-family="sans-serif" dy="1.5625" font-size="25" fill="#FFFFFF"/><text text-anchor="middle" pointer-events="none" x="0" y="5" font-size="10px" fill="#FFFFFF" font-family="sans-serif"> 11/30/20…</text></g><g class="node" transform="translate(106.70992221461752,330.3859712696451)"><circle class="outline" cx="0" cy="0" r="25" fill="#4C8EDA" stroke="#2870c2" stroke-width="2px"/><text text-anchor="middle" pointer-events="none" font-family="sans-serif" dy="1.5625" font-size="25" fill="#FFFFFF"/><text text-anchor="middle" pointer-events="none" x="0" y="5" font-size="10px" fill="#FFFFFF" font-family="sans-serif"> 11/29/20…</text></g><g class="node" transform="translate(-57.353581509846656,-132.06486358715213)"><circle class="outline" cx="0" cy="0" r="25" fill="#4C8EDA" stroke="#2870c2" stroke-width="2px"/><text text-anchor="middle" pointer-events="none" font-family="sans-serif" dy="1.5625" font-size="25" fill="#FFFFFF"/><text text-anchor="middle" pointer-events="none" x="0" y="5" font-size="10px" fill="#FFFFFF" font-family="sans-serif"> 11/30/20…</text></g></g></svg>