<svg xmlns="http://www.w3.org/2000/svg" width="238.01707458496094" height="230.03857421875" viewBox="-24.656084060668945 -15.241211891174316 238.01707458496094 230.03857421875"><title>Neo4j Graph Visualization</title><desc>Created using Neo4j (http://www.neo4j.com/)</desc><g class="layer relationships"><g class="relationship" transform="translate(103.84880606351973 13.75878828006639) rotate(400.1567739969453)"><path class="outline" fill="#A5ABB6" stroke="none" d="M 25 0.5 L 39.503747207420965 0.5 L 39.503747207420965 -0.5 L 25 -0.5 Z M 58.839684707420965 0.5 L 73.34343191484193 0.5 L 73.34343191484193 3.5 L 80.34343191484193 0 L 73.34343191484193 -3.5 L 73.34343191484193 -0.5 L 58.839684707420965 -0.5 Z"/><text text-anchor="middle" pointer-events="none" font-size="8px" fill="#000000" x="49.171715957420965" y="3" font-family="sans-serif">trek</text></g><g class="relationship" transform="translate(4.343915507177973 49.52499910164063) rotate(340.2294449396521)"><path class="outline" fill="#A5ABB6" stroke="none" d="M 21.40063509461097,12.933012701892217 L 21.90063509461097,12.06698729810778 A 58.16286231585091 58.16286231585091 0 0 0 39.64921336791121,18.744564706125445 L 39.45436647707075,19.725398376596537 A 59.16286231585091 59.16286231585091 0 0 1 21.40063509461097,12.933012701892217 Z M 58.85744734630117,20.33283042988033 L 58.72433375467471,19.341729642006413 A 58.16286231585091 58.16286231585091 0 0 0 76.85584320768963,13.787412787634153 L 75.52129178131827,11.100598225672316 L 83.34750242332915,11.121261886427963 L 78.63524510951811,17.36983220358327 L 77.30069368314675,14.683017641621433 A 59.16286231585091 59.16286231585091 0 0 1 58.85744734630117,20.33283042988033"/><text text-anchor="middle" pointer-events="none" font-size="8px" fill="#000000" x="49.14646837327927" y="23.3306077521691" font-family="sans-serif">trek</text></g><g class="relationship" transform="translate(4.343915507177973 49.52499910164063) rotate(340.2294449396521)"><path class="outline" fill="#A5ABB6" stroke="none" d="M 25 0.5 L 38.36295251150556 0.5 L 38.36295251150556 -0.5 L 25 -0.5 Z M 60.37467126150556 0.5 L 73.73762377301112 0.5 L 73.73762377301112 3.5 L 80.73762377301112 0 L 73.73762377301112 -3.5 L 73.73762377301112 -0.5 L 60.37467126150556 -0.5 Z"/><text text-anchor="middle" pointer-events="none" font-size="8px" fill="#000000" x="49.36881188650556" y="3" font-family="sans-serif">road</text></g><g class="relationship" transform="translate(4.343915507177973 49.52499910164063) rotate(340.2294449396521)"><path class="outline" fill="#A5ABB6" stroke="none" d="M 21.40063509461097,-12.933012701892217 L 21.90063509461097,-12.06698729810778 A 58.16286231585091 58.16286231585091 0 0 1 22.68477766546581,-12.511645986706377 L 22.198259508339987,-13.385316452492475 A 59.16286231585091 59.16286231585091 0 0 0 21.40063509461097,-12.933012701892217 Z M 76.47633930562242,-15.084543790757557 L 76.04542247612589,-14.1821521429368 A 58.16286231585091 58.16286231585091 0 0 1 76.85584320768963,-13.787412787634153 L 75.52129178131827,-11.100598225672316 L 83.34750242332915,-11.121261886427963 L 78.63524510951811,-17.36983220358327 L 77.30069368314675,-14.683017641621433 A 59.16286231585091 59.16286231585091 0 0 0 76.47633930562242,-15.084543790757557"/><text text-anchor="middle" pointer-events="none" font-size="8px" fill="#000000" x="49.14646837327927" y="-17.330607752169094" font-family="sans-serif">PublicTrans…</text></g><g class="relationship" transform="translate(184.36097577558994 81.69279431424444) rotate(460.08242327061834)"><path class="outline" fill="#A5ABB6" stroke="none" d="M 25 0.5 L 39.70077227320121 0.5 L 39.70077227320121 -0.5 L 25 -0.5 Z M 59.03670977320121 0.5 L 73.73748204640242 0.5 L 73.73748204640242 3.5 L 80.73748204640242 0 L 73.73748204640242 -3.5 L 73.73748204640242 -0.5 L 59.03670977320121 -0.5 Z"/><text text-anchor="middle" pointer-events="none" font-size="8px" fill="#000000" x="49.36874102320121" y="3" transform="rotate(180 49.36874102320121 0)" font-family="sans-serif">trek</text></g></g><g class="layer nodes"><g class="node" transform="translate(165.85007519890667,185.79736515219287)"><circle class="outline" cx="0" cy="0" r="25" fill="#8DCC93" stroke="#5db665" stroke-width="2px"/><text text-anchor="middle" pointer-events="none" font-family="sans-serif" dy="1.5625" font-size="25" fill="#2A2C34"/><text text-anchor="middle" pointer-events="none" x="0" y="5" font-size="10px" fill="#2A2C34" font-family="sans-serif"> Sandak…</text></g><g class="node" transform="translate(184.36097577558994,81.69279431424444)"><circle class="outline" cx="0" cy="0" r="25" fill="#D9C8AE" stroke="#c0a378" stroke-width="2px"/><text text-anchor="middle" pointer-events="none" font-family="sans-serif" dy="1.5625" font-size="25" fill="#2A2C34"/><text text-anchor="middle" pointer-events="none" x="0" y="5" font-size="10px" fill="#2A2C34" font-family="sans-serif"> BhikeBh…</text></g><g class="node" transform="translate(103.84880606351973,13.75878828006639)"><circle class="outline" cx="0" cy="0" r="25" fill="#F16667" stroke="#eb2728" stroke-width="2px"/><text text-anchor="middle" pointer-events="none" font-family="sans-serif" dy="1.5625" font-size="25" fill="#FFFFFF"/><text text-anchor="middle" pointer-events="none" x="0" y="5" font-size="10px" fill="#FFFFFF" font-family="sans-serif"> Rimbik</text></g><g class="node" transform="translate(4.343915507177973,49.52499910164063)"><circle class="outline" cx="0" cy="0" r="25" fill="#F16667" stroke="#eb2728" stroke-width="2px"/><text text-anchor="middle" pointer-events="none" font-family="sans-serif" dy="1.5625" font-size="25" fill="#FFFFFF"/><text text-anchor="middle" pointer-events="none" x="0" y="5" font-size="10px" fill="#FFFFFF" font-family="sans-serif"> Darjeeling</text></g></g></svg>