<svg xmlns="http://www.w3.org/2000/svg" width="406.5684509277344" height="400.00384521484375" viewBox="-97.74222564697266 -84.9903564453125 406.5684509277344 400.00384521484375"><title>Neo4j Graph Visualization</title><desc>Created using Neo4j (http://www.neo4j.com/)</desc><g class="layer relationships"><g class="relationship" transform="translate(279.82626713190956 107.11831809343872) rotate(465.3423211278096)"><path class="outline" fill="#A5ABB6" stroke="none" d="M 25 0.5 L 33.04125701202819 0.5 L 33.04125701202819 -0.5 L 25 -0.5 Z M 67.48656951202818 0.5 L 75.52782652405638 0.5 L 75.52782652405638 3.5 L 82.52782652405638 0 L 75.52782652405638 -3.5 L 75.52782652405638 -0.5 L 67.48656951202818 -0.5 Z"/><text text-anchor="middle" pointer-events="none" font-size="8px" fill="#000000" x="50.26391326202819" y="3" transform="rotate(180 50.26391326202819 0)" font-family="sans-serif">ORIGIN</text></g><g class="relationship" transform="translate(279.82626713190956 107.11831809343872) rotate(251.54892916110953)"><path class="outline" fill="#A5ABB6" stroke="none" d="M 25 0.5 L 26.302027350976772 0.5 L 26.302027350976772 -0.5 L 25 -0.5 Z M 74.97390235097677 0.5 L 76.27592970195354 0.5 L 76.27592970195354 3.5 L 83.27592970195354 0 L 76.27592970195354 -3.5 L 76.27592970195354 -0.5 L 74.97390235097677 -0.5 Z"/><text text-anchor="middle" pointer-events="none" font-size="8px" fill="#000000" x="50.63796485097677" y="3" transform="rotate(180 50.63796485097677 0)" font-family="sans-serif">DESTINA…</text></g><g class="relationship" transform="translate(154.46179059632382 -54.4052741987651) rotate(392.84729394654374)"><path class="outline" fill="#A5ABB6" stroke="none" d="M 25 0.5 L 33.493294341355515 0.5 L 33.493294341355515 -0.5 L 25 -0.5 Z M 67.93860684135552 0.5 L 76.43190118271103 0.5 L 76.43190118271103 3.5 L 83.43190118271103 0 L 76.43190118271103 -3.5 L 76.43190118271103 -0.5 L 67.93860684135552 -0.5 Z"/><text text-anchor="middle" pointer-events="none" font-size="8px" fill="#000000" x="50.715950591355515" y="3" font-family="sans-serif">ORIGIN</text></g><g class="relationship" transform="translate(154.46179059632382 -54.4052741987651) rotate(180.83535084900137)"><path class="outline" fill="#A5ABB6" stroke="none" d="M 25 0.5 L 26.52552628332171 0.5 L 26.52552628332171 -0.5 L 25 -0.5 Z M 75.19740128332171 0.5 L 76.72292756664342 0.5 L 76.72292756664342 3.5 L 83.72292756664342 0 L 76.72292756664342 -3.5 L 76.72292756664342 -0.5 L 75.19740128332171 -0.5 Z"/><text text-anchor="middle" pointer-events="none" font-size="8px" fill="#000000" x="50.86146378332171" y="3" transform="rotate(180 50.86146378332171 0)" font-family="sans-serif">DESTINA…</text></g><g class="relationship" transform="translate(-44.629681908069614 4.609444538670178) rotate(326.15817136046763)"><path class="outline" fill="#A5ABB6" stroke="none" d="M 25 0.5 L 26.572008789375538 0.5 L 26.572008789375538 -0.5 L 25 -0.5 Z M 75.24388378937553 0.5 L 76.81589257875108 0.5 L 76.81589257875108 3.5 L 83.81589257875108 0 L 76.81589257875108 -3.5 L 76.81589257875108 -0.5 L 75.24388378937553 -0.5 Z"/><text text-anchor="middle" pointer-events="none" font-size="8px" fill="#000000" x="50.90794628937554" y="3" font-family="sans-serif">DESTINA…</text></g><g class="relationship" transform="translate(-44.629681908069614 4.609444538670178) rotate(462.7672226235203)"><path class="outline" fill="#A5ABB6" stroke="none" d="M 25 0.5 L 33.832921071471155 0.5 L 33.832921071471155 -0.5 L 25 -0.5 Z M 68.27823357147116 0.5 L 77.11115464294231 0.5 L 77.11115464294231 3.5 L 84.11115464294231 0 L 77.11115464294231 -3.5 L 77.11115464294231 -0.5 L 68.27823357147116 -0.5 Z"/><text text-anchor="middle" pointer-events="none" font-size="8px" fill="#000000" x="51.055577321471155" y="3" transform="rotate(180 51.055577321471155 0)" font-family="sans-serif">ORIGIN</text></g><g class="relationship" transform="translate(-33.63040208482002 212.7916380772538) rotate(250.96475315931355)"><path class="outline" fill="#A5ABB6" stroke="none" d="M 25 0.5 L 33.10510198746746 0.5 L 33.10510198746746 -0.5 L 25 -0.5 Z M 67.55041448746746 0.5 L 75.65551647493491 0.5 L 75.65551647493491 3.5 L 82.65551647493491 0 L 75.65551647493491 -3.5 L 75.65551647493491 -0.5 L 67.55041448746746 -0.5 Z"/><text text-anchor="middle" pointer-events="none" font-size="8px" fill="#000000" x="50.32775823746746" y="3" transform="rotate(180 50.32775823746746 0)" font-family="sans-serif">ORIGIN</text></g><g class="relationship" transform="translate(-33.63040208482002 212.7916380772538) rotate(403.43650150955716)"><path class="outline" fill="#A5ABB6" stroke="none" d="M 25 0.5 L 25.412415127731713 0.5 L 25.412415127731713 -0.5 L 25 -0.5 Z M 74.08429012773172 0.5 L 74.49670525546343 0.5 L 74.49670525546343 3.5 L 81.49670525546343 0 L 74.49670525546343 -3.5 L 74.49670525546343 -0.5 L 74.08429012773172 -0.5 Z"/><text text-anchor="middle" pointer-events="none" font-size="8px" fill="#000000" x="49.74835262773171" y="3" font-family="sans-serif">DESTINA…</text></g></g><g class="layer nodes"><g class="node" transform="translate(251.37596967484816,210.81409453391043)"><circle class="outline" cx="0" cy="0" r="25" fill="#ECB5C9" stroke="#da7298" stroke-width="2px"/><text text-anchor="middle" pointer-events="none" font-family="sans-serif" dy="1.5625" font-size="25" fill="#2A2C34"/><text text-anchor="middle" pointer-events="none" x="0" y="5" font-size="10px" fill="#2A2C34" font-family="sans-serif"> LAX</text></g><g class="node" transform="translate(43.70077464470785,286.01347454627154)"><circle class="outline" cx="0" cy="0" r="25" fill="#ECB5C9" stroke="#da7298" stroke-width="2px"/><text text-anchor="middle" pointer-events="none" font-family="sans-serif" dy="1.5625" font-size="25" fill="#2A2C34"/><text text-anchor="middle" pointer-events="none" x="0" y="5" font-size="10px" fill="#2A2C34" font-family="sans-serif"> DAY</text></g><g class="node" transform="translate(279.82626713190956,107.11831809343872)"><circle class="outline" cx="0" cy="0" r="25" fill="#4C8EDA" stroke="#2870c2" stroke-width="2px"/><text text-anchor="middle" pointer-events="none" font-family="sans-serif" dy="1.5625" font-size="25" fill="#FFFFFF"/><text text-anchor="middle" pointer-events="none" x="0" y="5" font-size="10px" fill="#FFFFFF" font-family="sans-serif"> 11/29/20…</text></g><g class="node" transform="translate(245.55750966100777,4.408390558546079)"><circle class="outline" cx="0" cy="0" r="25" fill="#ECB5C9" stroke="#da7298" stroke-width="2px"/><text text-anchor="middle" pointer-events="none" font-family="sans-serif" dy="1.5625" font-size="25" fill="#2A2C34"/><text text-anchor="middle" pointer-events="none" x="0" y="5" font-size="10px" fill="#2A2C34" font-family="sans-serif"> LAS</text></g><g class="node" transform="translate(154.46179059632382,-54.4052741987651)"><circle class="outline" cx="0" cy="0" r="25" fill="#4C8EDA" stroke="#2870c2" stroke-width="2px"/><text text-anchor="middle" pointer-events="none" font-family="sans-serif" dy="1.5625" font-size="25" fill="#FFFFFF"/><text text-anchor="middle" pointer-events="none" x="0" y="5" font-size="10px" fill="#FFFFFF" font-family="sans-serif"> 11/29/20…</text></g><g class="node" transform="translate(45.75041819122029,-55.990357307149665)"><circle class="outline" cx="0" cy="0" r="25" fill="#ECB5C9" stroke="#da7298" stroke-width="2px"/><text text-anchor="middle" pointer-events="none" font-family="sans-serif" dy="1.5625" font-size="25" fill="#2A2C34"/><text text-anchor="middle" pointer-events="none" x="0" y="5" font-size="10px" fill="#2A2C34" font-family="sans-serif"> DEN</text></g><g class="node" transform="translate(-44.629681908069614,4.609444538670178)"><circle class="outline" cx="0" cy="0" r="25" fill="#4C8EDA" stroke="#2870c2" stroke-width="2px"/><text text-anchor="middle" pointer-events="none" font-family="sans-serif" dy="1.5625" font-size="25" fill="#FFFFFF"/><text text-anchor="middle" pointer-events="none" x="0" y="5" font-size="10px" fill="#FFFFFF" font-family="sans-serif"> 11/29/20…</text></g><g class="node" transform="translate(-68.74222194604414,111.02292808485029)"><circle class="outline" cx="0" cy="0" r="25" fill="#ECB5C9" stroke="#da7298" stroke-width="2px"/><text text-anchor="middle" pointer-events="none" font-family="sans-serif" dy="1.5625" font-size="25" fill="#2A2C34"/><text text-anchor="middle" pointer-events="none" x="0" y="5" font-size="10px" fill="#2A2C34" font-family="sans-serif"> MSP</text></g><g class="node" transform="translate(-33.63040208482002,212.7916380772538)"><circle class="outline" cx="0" cy="0" r="25" fill="#4C8EDA" stroke="#2870c2" stroke-width="2px"/><text text-anchor="middle" pointer-events="none" font-family="sans-serif" dy="1.5625" font-size="25" fill="#FFFFFF"/><text text-anchor="middle" pointer-events="none" x="0" y="5" font-size="10px" fill="#FFFFFF" font-family="sans-serif"> 11/23/20…</text></g></g></svg>