<svg xmlns="http://www.w3.org/2000/svg" width="341.5767822265625" height="333.26611328125" viewBox="-61.05339431762695 -55.07014465332031 341.5767822265625 333.26611328125"><title>Neo4j Graph Visualization</title><desc>Created using Neo4j (http://www.neo4j.com/)</desc><g class="layer relationships"><g class="relationship" transform="translate(236.3456470127188 37.66404754330655) rotate(441.94814202993905)"><path class="outline" fill="#A5ABB6" stroke="none" d="M 25 0.5 L 26.343353261368918 0.5 L 26.343353261368918 -0.5 L 25 -0.5 Z M 75.01522826136892 0.5 L 76.35858152273784 0.5 L 76.35858152273784 3.5 L 83.35858152273784 0 L 76.35858152273784 -3.5 L 76.35858152273784 -0.5 L 75.01522826136892 -0.5 Z"/><text text-anchor="middle" pointer-events="none" font-size="8px" fill="#000000" x="50.67929076136892" y="3" font-family="sans-serif">DESTINA…</text></g><g class="relationship" transform="translate(236.3456470127188 37.66404754330655) rotate(215.97804121371382)"><path class="outline" fill="#A5ABB6" stroke="none" d="M 25 0.5 L 33.52150395542914 0.5 L 33.52150395542914 -0.5 L 25 -0.5 Z M 67.96681645542914 0.5 L 76.48832041085828 0.5 L 76.48832041085828 3.5 L 83.48832041085828 0 L 76.48832041085828 -3.5 L 76.48832041085828 -0.5 L 67.96681645542914 -0.5 Z"/><text text-anchor="middle" pointer-events="none" font-size="8px" fill="#000000" x="50.74416020542914" y="3" transform="rotate(180 50.74416020542914 0)" font-family="sans-serif">ORIGIN</text></g><g class="relationship" transform="translate(39.25780222528656 -20.333448673235736) rotate(356.99539247778443)"><path class="outline" fill="#A5ABB6" stroke="none" d="M 25 0.5 L 26.886546802838126 0.5 L 26.886546802838126 -0.5 L 25 -0.5 Z M 75.55842180283813 0.5 L 77.44496860567625 0.5 L 77.44496860567625 3.5 L 84.44496860567625 0 L 77.44496860567625 -3.5 L 77.44496860567625 -0.5 L 75.55842180283813 -0.5 Z"/><text text-anchor="middle" pointer-events="none" font-size="8px" fill="#000000" x="51.222484302838126" y="3" font-family="sans-serif">DESTINA…</text></g><g class="relationship" transform="translate(39.25780222528656 -20.333448673235736) rotate(490.8501260548372)"><path class="outline" fill="#A5ABB6" stroke="none" d="M 25 0.5 L 33.789719555043916 0.5 L 33.789719555043916 -0.5 L 25 -0.5 Z M 68.23503205504392 0.5 L 77.02475161008783 0.5 L 77.02475161008783 3.5 L 84.02475161008783 0 L 77.02475161008783 -3.5 L 77.02475161008783 -0.5 L 68.23503205504392 -0.5 Z"/><text text-anchor="middle" pointer-events="none" font-size="8px" fill="#000000" x="51.012375805043916" y="3" transform="rotate(180 51.012375805043916 0)" font-family="sans-serif">ORIGIN</text></g><g class="relationship" transform="translate(-28.425369578048212 170.49523084992572) rotate(268.0823815983173)"><path class="outline" fill="#A5ABB6" stroke="none" d="M 25 0.5 L 33.487621787066296 0.5 L 33.487621787066296 -0.5 L 25 -0.5 Z M 67.9329342870663 0.5 L 76.42055607413259 0.5 L 76.42055607413259 3.5 L 83.42055607413259 0 L 76.42055607413259 -3.5 L 76.42055607413259 -0.5 L 67.9329342870663 -0.5 Z"/><text text-anchor="middle" pointer-events="none" font-size="8px" fill="#000000" x="50.710278037066296" y="3" transform="rotate(180 50.710278037066296 0)" font-family="sans-serif">ORIGIN</text></g><g class="relationship" transform="translate(-28.425369578048212 170.49523084992572) rotate(406.9441860748449)"><path class="outline" fill="#A5ABB6" stroke="none" d="M 25 0.5 L 26.01786535355742 0.5 L 26.01786535355742 -0.5 L 25 -0.5 Z M 74.68974035355743 0.5 L 75.70760570711484 0.5 L 75.70760570711484 3.5 L 82.70760570711484 0 L 75.70760570711484 -3.5 L 75.70760570711484 -0.5 L 74.68974035355743 -0.5 Z"/><text text-anchor="middle" pointer-events="none" font-size="8px" fill="#000000" x="50.35380285355742" y="3" font-family="sans-serif">DESTINA…</text></g></g><g class="layer nodes"><g class="node" transform="translate(251.52336069421798,144.95439751487788)"><circle class="outline" cx="0" cy="0" r="25" fill="#ECB5C9" stroke="#da7298" stroke-width="2px"/><text text-anchor="middle" pointer-events="none" font-family="sans-serif" dy="1.5625" font-size="25" fill="#2A2C34"/><text text-anchor="middle" pointer-events="none" x="0" y="5" font-size="10px" fill="#2A2C34" font-family="sans-serif"> LAX</text></g><g class="node" transform="translate(45.107741063341635,249.1959930226038)"><circle class="outline" cx="0" cy="0" r="25" fill="#ECB5C9" stroke="#da7298" stroke-width="2px"/><text text-anchor="middle" pointer-events="none" font-family="sans-serif" dy="1.5625" font-size="25" fill="#2A2C34"/><text text-anchor="middle" pointer-events="none" x="0" y="5" font-size="10px" fill="#2A2C34" font-family="sans-serif"> DAY</text></g><g class="node" transform="translate(236.3456470127188,37.66404754330655)"><circle class="outline" cx="0" cy="0" r="25" fill="#4C8EDA" stroke="#2870c2" stroke-width="2px"/><text text-anchor="middle" pointer-events="none" font-family="sans-serif" dy="1.5625" font-size="25" fill="#FFFFFF"/><text text-anchor="middle" pointer-events="none" x="0" y="5" font-size="10px" fill="#FFFFFF" font-family="sans-serif"> 11/30/20…</text></g><g class="node" transform="translate(148.55231933395126,-26.070144854946964)"><circle class="outline" cx="0" cy="0" r="25" fill="#ECB5C9" stroke="#da7298" stroke-width="2px"/><text text-anchor="middle" pointer-events="none" font-family="sans-serif" dy="1.5625" font-size="25" fill="#2A2C34"/><text text-anchor="middle" pointer-events="none" x="0" y="5" font-size="10px" fill="#2A2C34" font-family="sans-serif"> ORD</text></g><g class="node" transform="translate(39.25780222528656,-20.333448673235736)"><circle class="outline" cx="0" cy="0" r="25" fill="#4C8EDA" stroke="#2870c2" stroke-width="2px"/><text text-anchor="middle" pointer-events="none" font-family="sans-serif" dy="1.5625" font-size="25" fill="#FFFFFF"/><text text-anchor="middle" pointer-events="none" x="0" y="5" font-size="10px" fill="#FFFFFF" font-family="sans-serif"> 11/29/20…</text></g><g class="node" transform="translate(-32.05339318121836,62.13539316012955)"><circle class="outline" cx="0" cy="0" r="25" fill="#ECB5C9" stroke="#da7298" stroke-width="2px"/><text text-anchor="middle" pointer-events="none" font-family="sans-serif" dy="1.5625" font-size="25" fill="#2A2C34"/><text text-anchor="middle" pointer-events="none" x="0" y="5" font-size="10px" fill="#2A2C34" font-family="sans-serif"> MSP</text></g><g class="node" transform="translate(-28.425369578048212,170.49523084992572)"><circle class="outline" cx="0" cy="0" r="25" fill="#4C8EDA" stroke="#2870c2" stroke-width="2px"/><text text-anchor="middle" pointer-events="none" font-family="sans-serif" dy="1.5625" font-size="25" fill="#FFFFFF"/><text text-anchor="middle" pointer-events="none" x="0" y="5" font-size="10px" fill="#FFFFFF" font-family="sans-serif"> 11/25/20…</text></g></g></svg>