<svg xmlns="http://www.w3.org/2000/svg" width="431.73358154296875" height="75.8401870727539" viewBox="-183.34617614746094 47.90068054199219 431.73358154296875 75.8401870727539"><title>Neo4j Graph Visualization</title><desc>Created using Neo4j (http://www.neo4j.com/)</desc><g class="layer relationships"><g class="relationship" transform="translate(-11.189752652662373 91.82459126799662) rotate(360.8988144535308)"><path class="outline" fill="#A5ABB6" stroke="none" d="M 25 0.5 L 44.85066488653923 0.5 L 44.85066488653923 -0.5 L 25 -0.5 Z M 64.18660238653922 0.5 L 84.03726727307846 0.5 L 84.03726727307846 3.5 L 91.03726727307846 0 L 84.03726727307846 -3.5 L 84.03726727307846 -0.5 L 64.18660238653922 -0.5 Z"/><text text-anchor="middle" pointer-events="none" font-size="8px" fill="#000000" x="54.51863363653923" y="3" font-family="sans-serif">trek</text></g><g class="relationship" transform="translate(-154.34617653519504 79.89079373649142) rotate(364.7652695488908)"><path class="outline" fill="#A5ABB6" stroke="none" d="M 21.40063509461097,12.933012701892217 L 21.90063509461097,12.06698729810778 A 97.07417791281615 97.07417791281615 0 0 0 58.5800241590635,24.345524809369508 L 58.45787324162174,25.338036347523158 A 98.07417791281615 98.07417791281615 0 0 1 21.40063509461097,12.933012701892217 Z M 77.85580914618029,25.79151600132238 L 77.78017165165288,24.7943806196306 A 97.07417791281615 97.07417791281615 0 0 0 114.99326573514952,14.243281421453679 L 113.61631227619323,11.577948576972847 L 121.44186794876418,11.47461215796912 L 116.82920368042458,17.797058547428122 L 115.45225022146829,15.131725702947291 A 98.07417791281615 98.07417791281615 0 0 1 77.85580914618029,25.79151600132238"/><text text-anchor="middle" pointer-events="none" font-size="8px" fill="#000000" x="68.15728460374521" y="28.545808982256048" font-family="sans-serif">trek</text></g><g class="relationship" transform="translate(-154.34617653519504 79.89079373649142) rotate(364.7652695488908)"><path class="outline" fill="#A5ABB6" stroke="none" d="M 25 0.5 L 57.320628118052184 0.5 L 57.320628118052184 -0.5 L 25 -0.5 Z M 79.33234686805218 0.5 L 111.65297498610437 0.5 L 111.65297498610437 3.5 L 118.65297498610437 0 L 111.65297498610437 -3.5 L 111.65297498610437 -0.5 L 79.33234686805218 -0.5 Z"/><text text-anchor="middle" pointer-events="none" font-size="8px" fill="#000000" x="68.32648749305218" y="3" font-family="sans-serif">road</text></g><g class="relationship" transform="translate(-154.34617653519504 79.89079373649142) rotate(364.7652695488908)"><path class="outline" fill="#A5ABB6" stroke="none" d="M 21.40063509461097,-12.933012701892217 L 21.90063509461097,-12.06698729810778 A 97.07417791281615 97.07417791281615 0 0 1 38.094090039626735,-19.525794646823982 L 37.76090530701493,-20.468656213521015 A 98.07417791281615 98.07417791281615 0 0 0 21.40063509461097,-12.933012701892217 Z M 98.75771262421588,-21.894622934988618 L 98.46895171715661,-20.93722169279478 A 97.07417791281615 97.07417791281615 0 0 1 114.99326573514952,-14.243281421453679 L 113.61631227619323,-11.577948576972847 L 121.44186794876418,-11.47461215796912 L 116.82920368042458,-17.797058547428122 L 115.45225022146829,-15.131725702947291 A 98.07417791281615 98.07417791281615 0 0 0 98.75771262421588,-21.894622934988618"/><text text-anchor="middle" pointer-events="none" font-size="8px" fill="#000000" x="68.15728460374521" y="-22.545808982256048" font-family="sans-serif">PublicTransport</text></g><g class="relationship" transform="translate(104.83323707926047 93.64482473378335) rotate(360.1931208529139)"><path class="outline" fill="#A5ABB6" stroke="none" d="M 25 0.5 L 44.1094327266124 0.5 L 44.1094327266124 -0.5 L 25 -0.5 Z M 63.4453702266124 0.5 L 82.5548029532248 0.5 L 82.5548029532248 3.5 L 89.5548029532248 0 L 82.5548029532248 -3.5 L 82.5548029532248 -0.5 L 63.4453702266124 -0.5 Z"/><text text-anchor="middle" pointer-events="none" font-size="8px" fill="#000000" x="53.7774014766124" y="3" font-family="sans-serif">trek</text></g></g><g class="layer nodes"><g class="node" transform="translate(219.38738930976197,94.03094181867736)"><circle class="outline" cx="0" cy="0" r="25" fill="#8DCC93" stroke="#5db665" stroke-width="2px"/><text text-anchor="middle" pointer-events="none" font-family="sans-serif" dy="1.5625" font-size="25" fill="#2A2C34"/><text text-anchor="middle" pointer-events="none" x="0" y="5" font-size="10px" fill="#2A2C34" font-family="sans-serif"> Sandak…</text></g><g class="node" transform="translate(104.83323707926047,93.64482473378335)"><circle class="outline" cx="0" cy="0" r="25" fill="#D9C8AE" stroke="#c0a378" stroke-width="2px"/><text text-anchor="middle" pointer-events="none" font-family="sans-serif" dy="1.5625" font-size="25" fill="#2A2C34"/><text text-anchor="middle" pointer-events="none" x="0" y="5" font-size="10px" fill="#2A2C34" font-family="sans-serif"> BhikeBh…</text></g><g class="node" transform="translate(-11.189752652662373,91.82459126799662)"><circle class="outline" cx="0" cy="0" r="25" fill="#F16667" stroke="#eb2728" stroke-width="2px"/><text text-anchor="middle" pointer-events="none" font-family="sans-serif" dy="1.5625" font-size="25" fill="#FFFFFF"/><text text-anchor="middle" pointer-events="none" x="0" y="5" font-size="10px" fill="#FFFFFF" font-family="sans-serif"> Rimbik</text></g><g class="node" transform="translate(-154.34617653519504,79.89079373649142)"><circle class="outline" cx="0" cy="0" r="25" fill="#F16667" stroke="#eb2728" stroke-width="2px"/><text text-anchor="middle" pointer-events="none" font-family="sans-serif" dy="1.5625" font-size="25" fill="#FFFFFF"/><text text-anchor="middle" pointer-events="none" x="0" y="5" font-size="10px" fill="#FFFFFF" font-family="sans-serif"> Darjeeling</text></g></g></svg>